<?xml version="1.0" encoding="UTF-8" standalone="no"?>
<!-- Created with Inkscape (http://www.inkscape.org/) -->

<svg
   xmlns:ns0="http://www.iki.fi/pav/software/textext/"
   xmlns:dc="http://purl.org/dc/elements/1.1/"
   xmlns:cc="http://creativecommons.org/ns#"
   xmlns:rdf="http://www.w3.org/1999/02/22-rdf-syntax-ns#"
   xmlns:svg="http://www.w3.org/2000/svg"
   xmlns="http://www.w3.org/2000/svg"
   xmlns:sodipodi="http://sodipodi.sourceforge.net/DTD/sodipodi-0.dtd"
   xmlns:inkscape="http://www.inkscape.org/namespaces/inkscape"
   width="1233.8929mm"
   height="176.76935mm"
   viewBox="0 0 1233.893 176.76935"
   version="1.1"
   id="svg8"
   inkscape:version="0.91 r13725"
   sodipodi:docname="correctA.svg">
  <sodipodi:namedview
     id="base"
     pagecolor="#ffffff"
     bordercolor="#666666"
     borderopacity="1.0"
     inkscape:pageopacity="0.0"
     inkscape:pageshadow="2"
     inkscape:zoom="0.12374369"
     inkscape:cx="-105.62112"
     inkscape:cy="1175.0472"
     inkscape:document-units="mm"
     inkscape:current-layer="layer1"
     showgrid="false"
     inkscape:window-width="1855"
     inkscape:window-height="1176"
     inkscape:window-x="65"
     inkscape:window-y="24"
     inkscape:window-maximized="1"
     fit-margin-top="0"
     fit-margin-left="0"
     fit-margin-right="0"
     fit-margin-bottom="0" />
  <defs
     id="defs2" />
  <metadata
     id="metadata5">
    <rdf:RDF>
      <cc:Work
         rdf:about="">
        <dc:format>image/svg+xml</dc:format>
        <dc:type
           rdf:resource="http://purl.org/dc/dcmitype/StillImage" />
        <dc:title></dc:title>
      </cc:Work>
    </rdf:RDF>
  </metadata>
  <g
     transform="translate(377.84767,-49.781385)"
     inkscape:label="Layer 1"
     inkscape:groupmode="layer"
     id="layer1">
    <text
       xml:space="preserve"
       style="font-style:normal;font-weight:normal;font-size:10.58333302px;line-height:1.25;font-family:sans-serif;letter-spacing:0px;word-spacing:0px;fill:#000000;fill-opacity:1;stroke:none;stroke-width:0.26458332"
       x="-93.738091"
       y="327.2381"
       id="text5354"><tspan
         sodipodi:role="line"
         id="tspan5352"
         x="-93.738091"
         y="327.2381"
         style="stroke-width:0.26458332" /></text>
    <g
       id="g3605">
      <rect
         y="51.500885"
         x="-199.35883"
         height="173.33034"
         width="173.33034"
         id="rect4523-1"
         style="fill:none;fill-opacity:1;stroke:#000000;stroke-width:3.43899989;stroke-miterlimit:4;stroke-dasharray:none;stroke-opacity:1" />
      <rect
         y="51.500885"
         x="-376.12817"
         height="173.33034"
         width="173.33034"
         id="rect4523-1-1"
         style="fill:none;fill-opacity:1;stroke:#000000;stroke-width:3.43899989;stroke-miterlimit:4;stroke-dasharray:none;stroke-opacity:1" />
      <rect
         y="51.500893"
         x="-22.589481"
         height="173.33034"
         width="173.33034"
         id="rect4523"
         style="fill:none;fill-opacity:1;stroke:#000000;stroke-width:3.43899989;stroke-miterlimit:4;stroke-dasharray:none;stroke-opacity:1" />
      <rect
         style="fill:none;fill-opacity:1;stroke:#000000;stroke-width:3.43899989;stroke-miterlimit:4;stroke-dasharray:none;stroke-opacity:1"
         id="rect3411"
         width="173.33034"
         height="173.33034"
         x="154.17986"
         y="51.500893" />
      <rect
         style="fill:none;fill-opacity:1;stroke:#000000;stroke-width:3.43899989;stroke-miterlimit:4;stroke-dasharray:none;stroke-opacity:1"
         id="rect3421"
         width="173.33034"
         height="173.33034"
         x="330.94919"
         y="51.500893" />
    </g>
    <g
       ns0:preamble="/home/theo/angioi/Documents/Conferences/DPG_2016/Poster/pre.tex"
       ns0:text="$+$"
       word-spacing="normal"
       letter-spacing="normal"
       font-size-adjust="none"
       font-stretch="normal"
       font-weight="normal"
       font-variant="normal"
       font-style="normal"
       stroke-miterlimit="10.433"
       xml:space="preserve"
       transform="matrix(8.9782166,0,0,-8.9782166,-1445.8187,4445.0687)"
       id="content"
       style="font-style:normal;font-variant:normal;font-weight:normal;font-stretch:normal;letter-spacing:normal;word-spacing:normal;text-anchor:start;fill:none;fill-opacity:1;fill-rule:evenodd;stroke:#000000;stroke-linecap:butt;stroke-linejoin:miter;stroke-miterlimit:10.43299961;stroke-dasharray:none;stroke-dashoffset:0;stroke-opacity:1"><path
         id="path3468"
         d="m 227.51,479.52 2.78,0 c 0.14,0 0.33,0 0.33,0.2 0,0.2 -0.19,0.2 -0.33,0.2 l -2.78,0 0,2.78 c 0,0.14 0,0.33 -0.2,0.33 -0.2,0 -0.2,-0.19 -0.2,-0.33 l 0,-2.78 -2.79,0 c -0.14,0 -0.33,0 -0.33,-0.2 0,-0.2 0.19,-0.2 0.33,-0.2 l 2.79,0 0,-2.78 c 0,-0.14 0,-0.33 0.2,-0.33 0.2,0 0.2,0.19 0.2,0.33 z"
         inkscape:connector-curvature="0"
         style="fill:#000000;stroke-width:0" /></g>    <rect
       style="fill:none;fill-opacity:1;stroke:#000000;stroke-width:3.43899989;stroke-miterlimit:4;stroke-dasharray:none;stroke-opacity:1"
       id="rect4523-1-1-3"
       width="173.33034"
       height="173.33034"
       x="680.99548"
       y="51.500885" />
    <g
       id="g3475"
       transform="matrix(9.17051,0,0,9.17051,-38.275863,-752.84987)">
      <g
         word-spacing="normal"
         letter-spacing="normal"
         font-size-adjust="none"
         font-stretch="normal"
         font-weight="normal"
         font-variant="normal"
         font-style="normal"
         stroke-miterlimit="10.433"
         xml:space="preserve"
         transform="matrix(0.3,0,0,-0.3,-52.5,222.75)"
         id="content-6"
         style="font-style:normal;font-variant:normal;font-weight:normal;font-stretch:normal;letter-spacing:normal;word-spacing:normal;text-anchor:start;fill:none;fill-opacity:1;fill-rule:evenodd;stroke:#000000;stroke-linecap:butt;stroke-linejoin:miter;stroke-miterlimit:10.43299961;stroke-dasharray:none;stroke-dashoffset:0;stroke-opacity:1"><path
           id="path3478"
           d="m 469.22,427.48 0.01,0.07 0,0.06 0,0.08 0.01,0.07 0,0.07 0,0.08 -0.01,0.08 0,0.08 -0.01,0.07 0,0.08 -0.02,0.08 -0.01,0.08 -0.02,0.08 -0.02,0.07 -0.02,0.08 -0.03,0.07 -0.03,0.07 -0.03,0.07 -0.04,0.07 -0.05,0.06 -0.05,0.06 -0.05,0.06 -0.03,0.03 -0.03,0.02 -0.03,0.03 -0.04,0.02 -0.03,0.02 -0.04,0.03 -0.04,0.02 -0.04,0.02 -0.04,0.01 -0.04,0.02 -0.04,0.01 -0.05,0.02 -0.05,0.01 -0.05,0.01 -0.05,0.01 -0.05,0.01 -0.05,0 -0.06,0.01 -0.06,0 -0.06,0 c -0.79,0 -1.43,-0.66 -1.29,-1.3 l 0,-0.65 0.7,-7.72 -6.38,4.64 c -0.45,0.25 -0.54,0.34 -0.9,0.34 -0.69,0 -1.35,-0.7 -1.35,-1.39 0,-0.79 0.5,-1 1,-1.25 l 7.08,-3.39 -6.87,-3.33 c -0.8,-0.4 -1.21,-0.61 -1.21,-1.36 0,-0.73 0.66,-1.39 1.35,-1.39 0.36,0 0.45,0 1.7,0.96 l 5.58,4.03 -0.75,-8.38 c 0,-1.04 0.89,-1.29 1.3,-1.29 0.59,0 1.34,0.36 1.34,1.29 l -0.75,8.38 6.37,-4.64 c 0.46,-0.24 0.55,-0.35 0.91,-0.35 0.69,0 1.34,0.71 1.34,1.39 0,0.75 -0.45,1 -1.04,1.3 -2.99,1.5 -3.1,1.5 -7.03,3.35 l 6.87,3.34 c 0.8,0.39 1.2,0.59 1.2,1.34 0,0.75 -0.65,1.39 -1.34,1.39 -0.36,0 -0.45,0 -1.7,-0.95 l -5.58,-4.03 z"
           inkscape:connector-curvature="0"
           style="fill:#000000;stroke-width:0" /></g>    </g>
    <rect
       style="fill:#ffaaaa;fill-opacity:1;stroke:#db143d;stroke-width:3.6889267;stroke-miterlimit:4;stroke-dasharray:none;stroke-opacity:1"
       id="rect3507"
       width="793.44757"
       height="132.24127"
       x="-332.6481"
       y="72.045425" />
    <text
       xml:space="preserve"
       style="font-style:normal;font-weight:normal;font-size:58.95689774px;line-height:125%;font-family:sans-serif;letter-spacing:0px;word-spacing:0px;fill:#000000;fill-opacity:1;stroke:none;stroke-width:1px;stroke-linecap:butt;stroke-linejoin:miter;stroke-opacity:1"
       x="-209.90981"
       y="154.43102"
       id="text3596"
       sodipodi:linespacing="125%"><tspan
         sodipodi:role="line"
         id="tspan3598"
         x="-209.90981"
         y="154.43102">Winning Sequence</tspan></text>
  </g>
</svg>
