<?xml version="1.0" encoding="UTF-8" standalone="no"?>
<!-- Created with Inkscape (http://www.inkscape.org/) -->
<svg
   xmlns:dc="http://purl.org/dc/elements/1.1/"
   xmlns:cc="http://web.resource.org/cc/"
   xmlns:rdf="http://www.w3.org/1999/02/22-rdf-syntax-ns#"
   xmlns:svg="http://www.w3.org/2000/svg"
   xmlns="http://www.w3.org/2000/svg"
   xmlns:sodipodi="http://sodipodi.sourceforge.net/DTD/sodipodi-0.dtd"
   xmlns:inkscape="http://www.inkscape.org/namespaces/inkscape"
   version="1.0"
   x="0.00000000"
   y="0.00000000"
   width="731.60999"
   height="251.95"
   id="svg2"
   sodipodi:version="0.32"
   inkscape:version="0.45.1"
   sodipodi:docname="Cartas_Zener.svg"
   inkscape:output_extension="org.inkscape.output.svg.inkscape"
   sodipodi:docbase="C:\Wiki Uploads\Commons">
  <metadata
     id="metadata1329">
    <rdf:RDF>
      <cc:Work
         rdf:about="">
        <dc:format>image/svg+xml</dc:format>
        <dc:type
           rdf:resource="http://purl.org/dc/dcmitype/StillImage" />
      </cc:Work>
    </rdf:RDF>
  </metadata>
  <sodipodi:namedview
     inkscape:window-height="712"
     inkscape:window-width="1024"
     inkscape:pageshadow="2"
     inkscape:pageopacity="0.0"
     borderopacity="1.0"
     bordercolor="#666666"
     pagecolor="#ffffff"
     id="base"
     inkscape:zoom="1.2834707"
     inkscape:cx="365.80499"
     inkscape:cy="125.975"
     inkscape:window-x="35"
     inkscape:window-y="14"
     inkscape:current-layer="g6261"
     width="671.61px" />
  <defs
     id="defs4" />
  <g
     id="g1937"
     transform="translate(-535,1.921275)">
    <path
       d="M 572.26746,20.074062 L 669.34551,20.074062 C 677.80368,20.074062 684.61297,26.883351 684.61297,35.341527 L 684.61297,212.76126 C 684.61297,221.21944 677.80368,228.02872 669.34551,228.02872 L 572.26746,228.02872 C 563.80929,228.02872 557,221.21944 557,212.76126 L 557,35.341527 C 557,26.883351 563.80929,20.074062 572.26746,20.074062 z "
       style="fill:white;fill-opacity:1;stroke:black;stroke-width:4.00000238;stroke-linecap:round;stroke-linejoin:round;stroke-miterlimit:4;stroke-dashoffset:0;stroke-opacity:1"
       id="rect2091" />
    <path
       d="M 668.96545,124.05139 C 668.96545,150.88923 647.39023,172.67066 620.80648,172.67066 C 594.22274,172.67066 572.64752,150.88923 572.64752,124.05139 C 572.64752,97.213555 594.22274,75.43212 620.80648,75.43212 C 647.39023,75.43212 668.96545,97.213555 668.96545,124.05139 z "
       style="fill:none;fill-opacity:1;stroke:black;stroke-width:10.00000477;stroke-linecap:round;stroke-linejoin:round;stroke-miterlimit:4;stroke-dashoffset:0;stroke-opacity:1"
       id="path2093" />
  </g>
  <g
     id="g1907"
     transform="translate(145,1.921275)">
    <path
       d="M 32.267469,20.074061 L 129.34551,20.074061 C 137.80369,20.074061 144.61298,26.88335 144.61298,35.341526 L 144.61298,212.76127 C 144.61298,221.21945 137.80369,228.02873 129.34551,228.02873 L 32.267469,228.02873 C 23.809291,228.02873 17.000001,221.21945 17.000001,212.76127 L 17.000001,35.341526 C 17.000001,26.88335 23.809291,20.074061 32.267469,20.074061 z "
       style="fill:white;fill-opacity:1;stroke:black;stroke-width:4.00000238;stroke-linecap:round;stroke-linejoin:round;stroke-miterlimit:4;stroke-dashoffset:0;stroke-opacity:1"
       id="rect2085" />
    <path
       d="M 80.806486,73.159841 L 80.806486,174.94295 M 131.69804,124.0514 L 29.914936,124.0514"
       style="fill:none;fill-opacity:0.75;fill-rule:evenodd;stroke:black;stroke-width:12;stroke-linecap:butt;stroke-linejoin:miter;stroke-miterlimit:4;stroke-opacity:1;stroke-dasharray:none"
       id="path4279" />
  </g>
  <g
     id="g1916"
     transform="translate(150,1.921275)">
    <path
       d="M 167.26747,20.074061 L 264.34551,20.074061 C 272.80369,20.074061 279.61298,26.88335 279.61298,35.341526 L 279.61298,212.76126 C 279.61298,221.21944 272.80369,228.02872 264.34551,228.02872 L 167.26747,228.02872 C 158.80929,228.02872 152,221.21944 152,212.76126 L 152,35.341526 C 152,26.88335 158.80929,20.074061 167.26747,20.074061 z "
       style="fill:white;fill-opacity:1;stroke:black;stroke-width:4.00000238;stroke-linecap:round;stroke-linejoin:round;stroke-miterlimit:4;stroke-dashoffset:0;stroke-opacity:1"
       id="rect2081" />
    <g
       id="g6261">
      <path
         style="fill:#000000"
         d="M 214.18353,162.2364 C 216.70225,157.11315 217.47481,150.9023 214.71678,145.71923 C 212.64745,141.54197 209.86722,137.92097 207.30197,134.04859 C 203.23119,128.78345 200.03838,122.21282 201.49149,115.52209 C 202.25618,110.67723 205.20902,106.499 207.5146,102.26541 C 209.77307,98.544822 211.99853,94.506101 213.06113,90.215387 C 214.19498,84.330018 212.41724,75.706458 208.36796,71.08837 L 220.46377,71.092562 C 223.32532,75.58687 226.60533,80.437623 226.05693,85.950362 C 226.52262,93.159192 221.85285,99.281953 218.70353,105.45645 C 214.95406,111.33262 212.17572,118.79972 215.26838,125.489 C 218.15048,131.83291 222.91366,137.17774 226.32099,143.26488 C 229.18471,147.78946 229.41533,153.42474 228.28393,158.47706 C 226.15889,164.07657 223.09337,171.16584 220.57332,176.59906 L 207.45667,176.58189 C 209.11168,171.58162 211.89648,166.98869 214.18353,162.2364 z "
         id="path2161"
         sodipodi:nodetypes="cccccccccccccccc" />
      <path
         sodipodi:nodetypes="cccccccccccccccc"
         id="path2248"
         d="M 193.92596,162.2364 C 196.44468,157.11315 197.21724,150.9023 194.45921,145.71923 C 192.38988,141.54197 189.60965,137.92097 187.0444,134.04859 C 182.97362,128.78345 179.78081,122.21282 181.23392,115.52209 C 181.99861,110.67723 184.95145,106.499 187.25703,102.26541 C 189.5155,98.544822 191.74096,94.506101 192.80356,90.215387 C 193.93741,84.330018 192.15967,75.706458 188.11039,71.08837 L 200.2062,71.092562 C 203.06775,75.58687 206.34776,80.437623 205.79936,85.950362 C 206.26505,93.159192 201.59528,99.281953 198.44596,105.45645 C 194.69649,111.33262 191.91815,118.79972 195.01081,125.489 C 197.89291,131.83291 202.65609,137.17774 206.06342,143.26488 C 208.92714,147.78946 209.15776,153.42474 208.02636,158.47706 C 205.90132,164.07657 202.8358,171.16584 200.31575,176.59906 L 187.1991,176.58189 C 188.85411,171.58162 191.63891,166.98869 193.92596,162.2364 z "
         style="fill:#000000" />
      <path
         sodipodi:nodetypes="cccccccccccccccc"
         id="path2250"
         d="M 234.4411,162.2364 C 236.95982,157.11315 237.73238,150.9023 234.97435,145.71923 C 232.90502,141.54197 230.12479,137.92097 227.55954,134.04859 C 223.48876,128.78345 220.29595,122.21282 221.74906,115.52209 C 222.51375,110.67723 225.46659,106.499 227.77217,102.26541 C 230.03064,98.544822 232.2561,94.506101 233.3187,90.215387 C 234.45255,84.330018 232.67481,75.706458 228.62553,71.08837 L 240.72134,71.092562 C 243.58289,75.58687 246.8629,80.437623 246.3145,85.950362 C 246.78019,93.159192 242.11042,99.281953 238.9611,105.45645 C 235.21163,111.33262 232.43329,118.79972 235.52595,125.489 C 238.40805,131.83291 243.17123,137.17774 246.57856,143.26488 C 249.44228,147.78946 249.6729,153.42474 248.5415,158.47706 C 246.41646,164.07657 243.35094,171.16584 240.83089,176.59906 L 227.71424,176.58189 C 229.36925,171.58162 232.15405,166.98869 234.4411,162.2364 z "
         style="fill:#000000" />
    </g>
  </g>
  <g
     id="g1925"
     transform="translate(155,1.921275)">
    <path
       d="M 302.26747,20.074066 L 399.34551,20.074066 C 407.80369,20.074066 414.61297,26.883355 414.61297,35.341531 L 414.61297,212.76127 C 414.61297,221.21945 407.80369,228.02872 399.34551,228.02872 L 302.26747,228.02872 C 293.80929,228.02872 287,221.21945 287,212.76127 L 287,35.341531 C 287,26.883355 293.80929,20.074066 302.26747,20.074066 z "
       style="fill:white;fill-opacity:1;stroke:black;stroke-width:4.00000238;stroke-linecap:round;stroke-linejoin:round;stroke-miterlimit:4;stroke-dashoffset:0;stroke-opacity:1"
       id="rect2089" />
    <path
       d="M 309.0881,82.350822 L 392.52487,82.350822 L 392.52487,165.75196 L 309.0881,165.75196 L 309.0881,82.350822 z "
       style="fill:none;fill-opacity:1;stroke:black;stroke-width:12;stroke-linecap:round;stroke-linejoin:miter;stroke-miterlimit:4;stroke-dashoffset:0;stroke-opacity:1;stroke-dasharray:none"
       id="rect3551" />
  </g>
  <g
     id="g1931"
     transform="translate(160,1.921275)">
    <path
       d="M 437.26747,20.074061 L 534.34551,20.074061 C 542.80369,20.074061 549.61298,26.88335 549.61298,35.341526 L 549.61298,212.76126 C 549.61298,221.21944 542.80369,228.02872 534.34551,228.02872 L 437.26747,228.02872 C 428.80929,228.02872 422,221.21944 422,212.76126 L 422,35.341526 C 422,26.88335 428.80929,20.074061 437.26747,20.074061 z "
       style="fill:white;fill-opacity:1;stroke:black;stroke-width:4.00000238;stroke-linecap:round;stroke-linejoin:round;stroke-miterlimit:4;stroke-dashoffset:0;stroke-opacity:1"
       id="rect2087" />
    <path
       d="M 516.52699,170.99114 L 485.60587,153.74917 L 454.51743,170.58161 L 461.61013,136.41547 L 435.63969,112.5609 L 470.94435,108.68702 L 485.98217,77.111636 L 500.70894,108.88359 L 535.97329,113.22352 L 509.77025,136.73354 L 516.52699,170.99114 z "
       style="fill:none;fill-opacity:1;stroke:black;stroke-width:10.00000191;stroke-linecap:round;stroke-linejoin:round;stroke-miterlimit:4;stroke-dashoffset:0;stroke-opacity:1"
       id="path2821" />
  </g>
</svg>
