<?xml version="1.0" encoding="utf-8" standalone="no"?>
<!DOCTYPE svg PUBLIC "-//W3C//DTD SVG 1.1//EN"
  "http://www.w3.org/Graphics/SVG/1.1/DTD/svg11.dtd">
<!-- Created with matplotlib (https://matplotlib.org/) -->
<svg height="288pt" version="1.1" viewBox="0 0 432 288" width="432pt" xmlns="http://www.w3.org/2000/svg" xmlns:xlink="http://www.w3.org/1999/xlink">
 <defs>
  <style type="text/css">
*{stroke-linecap:butt;stroke-linejoin:round;}
  </style>
 </defs>
 <g id="figure_1">
  <g id="patch_1">
   <path d="M 0 288 
L 432 288 
L 432 0 
L 0 0 
z
" style="fill:#ffffff;"/>
  </g>
  <g id="axes_1">
   <g id="patch_2">
    <path d="M 54 252 
L 388.8 252 
L 388.8 34.56 
L 54 34.56 
z
" style="fill:#eaeaf2;"/>
   </g>
   <g id="matplotlib.axis_1">
    <g id="xtick_1">
     <g id="line2d_1">
      <path clip-path="url(#p778c1dad40)" d="M 69.218182 252 
L 69.218182 34.56 
" style="fill:none;stroke:#ffffff;stroke-linecap:round;"/>
     </g>
     <g id="text_1">
      <!-- 0 -->
      <defs>
       <path d="M 31.78125 66.40625 
Q 24.171875 66.40625 20.328125 58.90625 
Q 16.5 51.421875 16.5 36.375 
Q 16.5 21.390625 20.328125 13.890625 
Q 24.171875 6.390625 31.78125 6.390625 
Q 39.453125 6.390625 43.28125 13.890625 
Q 47.125 21.390625 47.125 36.375 
Q 47.125 51.421875 43.28125 58.90625 
Q 39.453125 66.40625 31.78125 66.40625 
z
M 31.78125 74.21875 
Q 44.046875 74.21875 50.515625 64.515625 
Q 56.984375 54.828125 56.984375 36.375 
Q 56.984375 17.96875 50.515625 8.265625 
Q 44.046875 -1.421875 31.78125 -1.421875 
Q 19.53125 -1.421875 13.0625 8.265625 
Q 6.59375 17.96875 6.59375 36.375 
Q 6.59375 54.828125 13.0625 64.515625 
Q 19.53125 74.21875 31.78125 74.21875 
z
" id="DejaVuSans-48"/>
      </defs>
      <g style="fill:#262626;" transform="translate(65.718807 269.858281)scale(0.11 -0.11)">
       <use xlink:href="#DejaVuSans-48"/>
      </g>
     </g>
    </g>
    <g id="xtick_2">
     <g id="line2d_2">
      <path clip-path="url(#p778c1dad40)" d="M 120.371734 252 
L 120.371734 34.56 
" style="fill:none;stroke:#ffffff;stroke-linecap:round;"/>
     </g>
     <g id="text_2">
      <!-- 20 -->
      <defs>
       <path d="M 19.1875 8.296875 
L 53.609375 8.296875 
L 53.609375 0 
L 7.328125 0 
L 7.328125 8.296875 
Q 12.9375 14.109375 22.625 23.890625 
Q 32.328125 33.6875 34.8125 36.53125 
Q 39.546875 41.84375 41.421875 45.53125 
Q 43.3125 49.21875 43.3125 52.78125 
Q 43.3125 58.59375 39.234375 62.25 
Q 35.15625 65.921875 28.609375 65.921875 
Q 23.96875 65.921875 18.8125 64.3125 
Q 13.671875 62.703125 7.8125 59.421875 
L 7.8125 69.390625 
Q 13.765625 71.78125 18.9375 73 
Q 24.125 74.21875 28.421875 74.21875 
Q 39.75 74.21875 46.484375 68.546875 
Q 53.21875 62.890625 53.21875 53.421875 
Q 53.21875 48.921875 51.53125 44.890625 
Q 49.859375 40.875 45.40625 35.40625 
Q 44.1875 33.984375 37.640625 27.21875 
Q 31.109375 20.453125 19.1875 8.296875 
z
" id="DejaVuSans-50"/>
      </defs>
      <g style="fill:#262626;" transform="translate(113.372984 269.858281)scale(0.11 -0.11)">
       <use xlink:href="#DejaVuSans-50"/>
       <use x="63.623047" xlink:href="#DejaVuSans-48"/>
      </g>
     </g>
    </g>
    <g id="xtick_3">
     <g id="line2d_3">
      <path clip-path="url(#p778c1dad40)" d="M 171.525286 252 
L 171.525286 34.56 
" style="fill:none;stroke:#ffffff;stroke-linecap:round;"/>
     </g>
     <g id="text_3">
      <!-- 40 -->
      <defs>
       <path d="M 37.796875 64.3125 
L 12.890625 25.390625 
L 37.796875 25.390625 
z
M 35.203125 72.90625 
L 47.609375 72.90625 
L 47.609375 25.390625 
L 58.015625 25.390625 
L 58.015625 17.1875 
L 47.609375 17.1875 
L 47.609375 0 
L 37.796875 0 
L 37.796875 17.1875 
L 4.890625 17.1875 
L 4.890625 26.703125 
z
" id="DejaVuSans-52"/>
      </defs>
      <g style="fill:#262626;" transform="translate(164.526536 269.858281)scale(0.11 -0.11)">
       <use xlink:href="#DejaVuSans-52"/>
       <use x="63.623047" xlink:href="#DejaVuSans-48"/>
      </g>
     </g>
    </g>
    <g id="xtick_4">
     <g id="line2d_4">
      <path clip-path="url(#p778c1dad40)" d="M 222.678839 252 
L 222.678839 34.56 
" style="fill:none;stroke:#ffffff;stroke-linecap:round;"/>
     </g>
     <g id="text_4">
      <!-- 60 -->
      <defs>
       <path d="M 33.015625 40.375 
Q 26.375 40.375 22.484375 35.828125 
Q 18.609375 31.296875 18.609375 23.390625 
Q 18.609375 15.53125 22.484375 10.953125 
Q 26.375 6.390625 33.015625 6.390625 
Q 39.65625 6.390625 43.53125 10.953125 
Q 47.40625 15.53125 47.40625 23.390625 
Q 47.40625 31.296875 43.53125 35.828125 
Q 39.65625 40.375 33.015625 40.375 
z
M 52.59375 71.296875 
L 52.59375 62.3125 
Q 48.875 64.0625 45.09375 64.984375 
Q 41.3125 65.921875 37.59375 65.921875 
Q 27.828125 65.921875 22.671875 59.328125 
Q 17.53125 52.734375 16.796875 39.40625 
Q 19.671875 43.65625 24.015625 45.921875 
Q 28.375 48.1875 33.59375 48.1875 
Q 44.578125 48.1875 50.953125 41.515625 
Q 57.328125 34.859375 57.328125 23.390625 
Q 57.328125 12.15625 50.6875 5.359375 
Q 44.046875 -1.421875 33.015625 -1.421875 
Q 20.359375 -1.421875 13.671875 8.265625 
Q 6.984375 17.96875 6.984375 36.375 
Q 6.984375 53.65625 15.1875 63.9375 
Q 23.390625 74.21875 37.203125 74.21875 
Q 40.921875 74.21875 44.703125 73.484375 
Q 48.484375 72.75 52.59375 71.296875 
z
" id="DejaVuSans-54"/>
      </defs>
      <g style="fill:#262626;" transform="translate(215.680089 269.858281)scale(0.11 -0.11)">
       <use xlink:href="#DejaVuSans-54"/>
       <use x="63.623047" xlink:href="#DejaVuSans-48"/>
      </g>
     </g>
    </g>
    <g id="xtick_5">
     <g id="line2d_5">
      <path clip-path="url(#p778c1dad40)" d="M 273.832391 252 
L 273.832391 34.56 
" style="fill:none;stroke:#ffffff;stroke-linecap:round;"/>
     </g>
     <g id="text_5">
      <!-- 80 -->
      <defs>
       <path d="M 31.78125 34.625 
Q 24.75 34.625 20.71875 30.859375 
Q 16.703125 27.09375 16.703125 20.515625 
Q 16.703125 13.921875 20.71875 10.15625 
Q 24.75 6.390625 31.78125 6.390625 
Q 38.8125 6.390625 42.859375 10.171875 
Q 46.921875 13.96875 46.921875 20.515625 
Q 46.921875 27.09375 42.890625 30.859375 
Q 38.875 34.625 31.78125 34.625 
z
M 21.921875 38.8125 
Q 15.578125 40.375 12.03125 44.71875 
Q 8.5 49.078125 8.5 55.328125 
Q 8.5 64.0625 14.71875 69.140625 
Q 20.953125 74.21875 31.78125 74.21875 
Q 42.671875 74.21875 48.875 69.140625 
Q 55.078125 64.0625 55.078125 55.328125 
Q 55.078125 49.078125 51.53125 44.71875 
Q 48 40.375 41.703125 38.8125 
Q 48.828125 37.15625 52.796875 32.3125 
Q 56.78125 27.484375 56.78125 20.515625 
Q 56.78125 9.90625 50.3125 4.234375 
Q 43.84375 -1.421875 31.78125 -1.421875 
Q 19.734375 -1.421875 13.25 4.234375 
Q 6.78125 9.90625 6.78125 20.515625 
Q 6.78125 27.484375 10.78125 32.3125 
Q 14.796875 37.15625 21.921875 38.8125 
z
M 18.3125 54.390625 
Q 18.3125 48.734375 21.84375 45.5625 
Q 25.390625 42.390625 31.78125 42.390625 
Q 38.140625 42.390625 41.71875 45.5625 
Q 45.3125 48.734375 45.3125 54.390625 
Q 45.3125 60.0625 41.71875 63.234375 
Q 38.140625 66.40625 31.78125 66.40625 
Q 25.390625 66.40625 21.84375 63.234375 
Q 18.3125 60.0625 18.3125 54.390625 
z
" id="DejaVuSans-56"/>
      </defs>
      <g style="fill:#262626;" transform="translate(266.833641 269.858281)scale(0.11 -0.11)">
       <use xlink:href="#DejaVuSans-56"/>
       <use x="63.623047" xlink:href="#DejaVuSans-48"/>
      </g>
     </g>
    </g>
    <g id="xtick_6">
     <g id="line2d_6">
      <path clip-path="url(#p778c1dad40)" d="M 324.985943 252 
L 324.985943 34.56 
" style="fill:none;stroke:#ffffff;stroke-linecap:round;"/>
     </g>
     <g id="text_6">
      <!-- 100 -->
      <defs>
       <path d="M 12.40625 8.296875 
L 28.515625 8.296875 
L 28.515625 63.921875 
L 10.984375 60.40625 
L 10.984375 69.390625 
L 28.421875 72.90625 
L 38.28125 72.90625 
L 38.28125 8.296875 
L 54.390625 8.296875 
L 54.390625 0 
L 12.40625 0 
z
" id="DejaVuSans-49"/>
      </defs>
      <g style="fill:#262626;" transform="translate(314.487818 269.858281)scale(0.11 -0.11)">
       <use xlink:href="#DejaVuSans-49"/>
       <use x="63.623047" xlink:href="#DejaVuSans-48"/>
       <use x="127.246094" xlink:href="#DejaVuSans-48"/>
      </g>
     </g>
    </g>
    <g id="xtick_7">
     <g id="line2d_7">
      <path clip-path="url(#p778c1dad40)" d="M 376.139496 252 
L 376.139496 34.56 
" style="fill:none;stroke:#ffffff;stroke-linecap:round;"/>
     </g>
     <g id="text_7">
      <!-- 120 -->
      <g style="fill:#262626;" transform="translate(365.641371 269.858281)scale(0.11 -0.11)">
       <use xlink:href="#DejaVuSans-49"/>
       <use x="63.623047" xlink:href="#DejaVuSans-50"/>
       <use x="127.246094" xlink:href="#DejaVuSans-48"/>
      </g>
     </g>
    </g>
   </g>
   <g id="matplotlib.axis_2">
    <g id="ytick_1">
     <g id="line2d_8">
      <path clip-path="url(#p778c1dad40)" d="M 54 242.116364 
L 388.8 242.116364 
" style="fill:none;stroke:#ffffff;stroke-linecap:round;"/>
     </g>
     <g id="text_8">
      <!-- 0 -->
      <g style="fill:#262626;" transform="translate(37.50125 246.295504)scale(0.11 -0.11)">
       <use xlink:href="#DejaVuSans-48"/>
      </g>
     </g>
    </g>
    <g id="ytick_2">
     <g id="line2d_9">
      <path clip-path="url(#p778c1dad40)" d="M 54 200.413257 
L 388.8 200.413257 
" style="fill:none;stroke:#ffffff;stroke-linecap:round;"/>
     </g>
     <g id="text_9">
      <!-- 200 -->
      <g style="fill:#262626;" transform="translate(23.50375 204.592397)scale(0.11 -0.11)">
       <use xlink:href="#DejaVuSans-50"/>
       <use x="63.623047" xlink:href="#DejaVuSans-48"/>
       <use x="127.246094" xlink:href="#DejaVuSans-48"/>
      </g>
     </g>
    </g>
    <g id="ytick_3">
     <g id="line2d_10">
      <path clip-path="url(#p778c1dad40)" d="M 54 158.71015 
L 388.8 158.71015 
" style="fill:none;stroke:#ffffff;stroke-linecap:round;"/>
     </g>
     <g id="text_10">
      <!-- 400 -->
      <g style="fill:#262626;" transform="translate(23.50375 162.88929)scale(0.11 -0.11)">
       <use xlink:href="#DejaVuSans-52"/>
       <use x="63.623047" xlink:href="#DejaVuSans-48"/>
       <use x="127.246094" xlink:href="#DejaVuSans-48"/>
      </g>
     </g>
    </g>
    <g id="ytick_4">
     <g id="line2d_11">
      <path clip-path="url(#p778c1dad40)" d="M 54 117.007043 
L 388.8 117.007043 
" style="fill:none;stroke:#ffffff;stroke-linecap:round;"/>
     </g>
     <g id="text_11">
      <!-- 600 -->
      <g style="fill:#262626;" transform="translate(23.50375 121.186183)scale(0.11 -0.11)">
       <use xlink:href="#DejaVuSans-54"/>
       <use x="63.623047" xlink:href="#DejaVuSans-48"/>
       <use x="127.246094" xlink:href="#DejaVuSans-48"/>
      </g>
     </g>
    </g>
    <g id="ytick_5">
     <g id="line2d_12">
      <path clip-path="url(#p778c1dad40)" d="M 54 75.303936 
L 388.8 75.303936 
" style="fill:none;stroke:#ffffff;stroke-linecap:round;"/>
     </g>
     <g id="text_12">
      <!-- 800 -->
      <g style="fill:#262626;" transform="translate(23.50375 79.483076)scale(0.11 -0.11)">
       <use xlink:href="#DejaVuSans-56"/>
       <use x="63.623047" xlink:href="#DejaVuSans-48"/>
       <use x="127.246094" xlink:href="#DejaVuSans-48"/>
      </g>
     </g>
    </g>
   </g>
   <g id="PolyCollection_1">
    <defs>
     <path d="M 69.218182 -102.312644 
L 69.218182 -191.456191 
L 71.775859 -162.408211 
L 74.333537 -138.865377 
L 76.891215 -132.714257 
L 79.448892 -129.056798 
L 82.00657 -118.913842 
L 84.564248 -102.93884 
L 87.121925 -86.300772 
L 89.679603 -74.20172 
L 92.23728 -57.779797 
L 94.794958 -50.877498 
L 97.352636 -51.631204 
L 99.910313 -55.712172 
L 102.467991 -71.71738 
L 105.025668 -91.181199 
L 107.583346 -97.665773 
L 110.141024 -108.641531 
L 112.698701 -120.939289 
L 115.256379 -135.433359 
L 117.814057 -141.058544 
L 120.371734 -146.638778 
L 122.929412 -150.430365 
L 125.487089 -153.688968 
L 128.044767 -160.66631 
L 130.602445 -156.031001 
L 133.160122 -141.152353 
L 135.7178 -130.441382 
L 138.275477 -123.142346 
L 140.833155 -116.750143 
L 143.390833 -105.063003 
L 145.94851 -83.033872 
L 148.506188 -64.514316 
L 151.063866 -54.550701 
L 153.621543 -50.942807 
L 156.179221 -50.229773 
L 158.736898 -55.138652 
L 161.294576 -63.159043 
L 163.852254 -89.610142 
L 166.409931 -136.745025 
L 168.967609 -114.01295 
L 171.525286 -115.545961 
L 174.082964 -128.011006 
L 176.640642 -144.404669 
L 179.198319 -148.919239 
L 181.755997 -146.562354 
L 184.313675 -145.110318 
L 186.871352 -156.807639 
L 189.42903 -189.7745 
L 191.986707 -179.494967 
L 194.544385 -150.81054 
L 197.102063 -127.843223 
L 199.65974 -114.704912 
L 202.217418 -103.634282 
L 204.775095 -86.726213 
L 207.332773 -67.213198 
L 209.890451 -52.903433 
L 212.448128 -50.391725 
L 215.005806 -49.724952 
L 217.563484 -50.298365 
L 220.121161 -52.662311 
L 222.678839 -83.152314 
L 225.236516 -145.267423 
L 227.794194 -191.765694 
L 230.351872 -126.48595 
L 232.909549 -99.593931 
L 235.467227 -102.621249 
L 238.024905 -123.033805 
L 240.582582 -122.717233 
L 243.14026 -116.828941 
L 245.697937 -122.868707 
L 248.255615 -156.96661 
L 250.813293 -222.050361 
L 253.37097 -205.750705 
L 255.928648 -159.601155 
L 258.486325 -129.604469 
L 261.044003 -108.722034 
L 263.601681 -96.686899 
L 266.159358 -79.398312 
L 268.717036 -54.976425 
L 271.274714 -48.816499 
L 273.832391 -49.722231 
L 276.390069 -49.503025 
L 278.947746 -50.140104 
L 281.505424 -58.176136 
L 284.063102 -85.083214 
L 286.620779 -147.294105 
L 289.178457 -196.623658 
L 291.736134 -134.676039 
L 294.293812 -111.109654 
L 296.85149 -120.466324 
L 299.409167 -137.769086 
L 301.966845 -139.143062 
L 304.524523 -138.167809 
L 307.0822 -143.803265 
L 309.639878 -169.410993 
L 312.197555 -223.179226 
L 314.755233 -209.49248 
L 317.312911 -165.414721 
L 319.870588 -137.399786 
L 322.428266 -123.251236 
L 324.985943 -112.271017 
L 327.543621 -94.634617 
L 330.101299 -74.193076 
L 332.658976 -61.039974 
L 335.216654 -53.754359 
L 337.774332 -49.807448 
L 340.332009 -50.15419 
L 342.889687 -58.707205 
L 345.447364 -82.11001 
L 348.005042 -144.984208 
L 350.56272 -196.381506 
L 353.120397 -127.545951 
L 355.678075 -96.265776 
L 358.235752 -101.747702 
L 360.79343 -121.584989 
L 363.351108 -120.920339 
L 365.908785 -120.006531 
L 368.466463 -123.965208 
L 371.024141 -153.943809 
L 373.581818 -214.210577 
L 373.581818 -118.680274 
L 373.581818 -118.680274 
L 371.024141 -81.280345 
L 368.466463 -61.798698 
L 365.908785 -62.686347 
L 363.351108 -66.134734 
L 360.79343 -69.442087 
L 358.235752 -60.579861 
L 355.678075 -57.855085 
L 353.120397 -81.035189 
L 350.56272 -124.788866 
L 348.005042 -91.710445 
L 345.447364 -60.383299 
L 342.889687 -48.026533 
L 340.332009 -45.883636 
L 337.774332 -45.883636 
L 335.216654 -46.813286 
L 332.658976 -47.63232 
L 330.101299 -48.359671 
L 327.543621 -52.794067 
L 324.985943 -56.396426 
L 322.428266 -56.667347 
L 319.870588 -58.918508 
L 317.312911 -75.124221 
L 314.755233 -100.658545 
L 312.197555 -112.964665 
L 309.639878 -79.875382 
L 307.0822 -63.643283 
L 304.524523 -63.881423 
L 301.966845 -68.329419 
L 299.409167 -70.730641 
L 296.85149 -66.502198 
L 294.293812 -61.383721 
L 291.736134 -77.145122 
L 289.178457 -116.795552 
L 286.620779 -89.252122 
L 284.063102 -60.710288 
L 281.505424 -48.109948 
L 278.947746 -45.883636 
L 276.390069 -45.883636 
L 273.832391 -45.883636 
L 271.274714 -45.883636 
L 268.717036 -45.883636 
L 266.159358 -62.497481 
L 263.601681 -72.274501 
L 261.044003 -78.700404 
L 258.486325 -90.54913 
L 255.928648 -108.143328 
L 253.37097 -137.408491 
L 250.813293 -151.241239 
L 248.255615 -106.933877 
L 245.697937 -81.209673 
L 243.14026 -77.536674 
L 240.582582 -83.363769 
L 238.024905 -84.247345 
L 235.467227 -71.676799 
L 232.909549 -68.55632 
L 230.351872 -86.265755 
L 227.794194 -126.40707 
L 225.236516 -95.840231 
L 222.678839 -62.635941 
L 220.121161 -45.883636 
L 217.563484 -45.883636 
L 215.005806 -45.883636 
L 212.448128 -45.883636 
L 209.890451 -46.222977 
L 207.332773 -49.016655 
L 204.775095 -52.223971 
L 202.217418 -58.06914 
L 199.65974 -63.69213 
L 197.102063 -68.987642 
L 194.544385 -79.512452 
L 191.986707 -96.357368 
L 189.42903 -108.540856 
L 186.871352 -88.569391 
L 184.313675 -82.502138 
L 181.755997 -87.318908 
L 179.198319 -94.055218 
L 176.640642 -91.905741 
L 174.082964 -83.210952 
L 171.525286 -74.330375 
L 168.967609 -74.179553 
L 166.409931 -82.587149 
L 163.852254 -49.133574 
L 161.294576 -47.77631 
L 158.736898 -47.420892 
L 156.179221 -45.883636 
L 153.621543 -45.883636 
L 151.063866 -47.38486 
L 148.506188 -46.921414 
L 145.94851 -47.07727 
L 143.390833 -47.103648 
L 140.833155 -46.405574 
L 138.275477 -46.342914 
L 135.7178 -45.883636 
L 133.160122 -46.23829 
L 130.602445 -45.883636 
L 128.044767 -45.883636 
L 125.487089 -45.883636 
L 122.929412 -45.883636 
L 120.371734 -45.883636 
L 117.814057 -45.985963 
L 115.256379 -46.607437 
L 112.698701 -47.882291 
L 110.141024 -48.807948 
L 107.583346 -49.296799 
L 105.025668 -50.034216 
L 102.467991 -49.312409 
L 99.910313 -46.976329 
L 97.352636 -45.883636 
L 94.794958 -45.883636 
L 92.23728 -48.280727 
L 89.679603 -50.718407 
L 87.121925 -48.896668 
L 84.564248 -48.65787 
L 82.00657 -49.080259 
L 79.448892 -48.698628 
L 76.891215 -49.03926 
L 74.333537 -54.011813 
L 71.775859 -75.114125 
L 69.218182 -102.312644 
z
" id="m9d5081167a" style="stroke:#008000;stroke-opacity:0.2;stroke-width:2;"/>
    </defs>
    <g clip-path="url(#p778c1dad40)">
     <use style="fill:#008000;fill-opacity:0.2;stroke:#008000;stroke-opacity:0.2;stroke-width:2;" x="0" xlink:href="#m9d5081167a" y="288"/>
    </g>
   </g>
   <g id="line2d_13">
    <path clip-path="url(#p778c1dad40)" d="M 69.218182 141.115582 
L 71.775859 169.238835 
L 74.333537 191.561407 
L 76.891215 197.123241 
L 79.448892 199.122287 
L 82.00657 204.002949 
L 84.564248 212.201645 
L 87.121925 220.401279 
L 89.679603 225.539937 
L 92.23728 234.969738 
L 94.794958 240.104576 
L 97.352636 239.436835 
L 99.910313 236.65575 
L 102.467991 227.485106 
L 105.025668 217.392293 
L 107.583346 214.518714 
L 110.141024 209.275259 
L 112.698701 203.589211 
L 115.256379 196.979604 
L 117.814057 194.477748 
L 120.371734 191.844473 
L 122.929412 190.639886 
L 125.487089 188.795674 
L 128.044767 184.792396 
L 130.602445 187.061275 
L 133.160122 194.304677 
L 135.7178 199.854395 
L 138.275477 203.25737 
L 140.833155 206.422141 
L 143.390833 211.916673 
L 145.94851 222.944428 
L 148.506188 232.282135 
L 151.063866 237.032219 
L 153.621543 239.926005 
L 156.179221 240.594381 
L 158.736898 236.720228 
L 161.294576 232.532323 
L 163.852254 218.628141 
L 166.409931 178.333913 
L 168.967609 193.903748 
L 171.525286 193.06183 
L 174.082964 182.389021 
L 176.640642 169.844795 
L 179.198319 166.512772 
L 181.755997 171.059369 
L 184.313675 174.193771 
L 186.871352 165.311485 
L 189.42903 138.842319 
L 191.986707 150.073834 
L 194.544385 172.838502 
L 197.102063 189.584569 
L 199.65974 198.80148 
L 202.217418 207.14829 
L 204.775095 218.524908 
L 207.332773 229.885073 
L 209.890451 238.436795 
L 212.448128 240.432429 
L 215.005806 241.099203 
L 217.563484 240.528288 
L 220.121161 239.964038 
L 222.678839 215.105874 
L 225.236516 167.446173 
L 227.794194 128.913618 
L 230.351872 181.624148 
L 232.909549 203.924874 
L 235.467227 200.850975 
L 238.024905 184.359425 
L 240.582582 184.959499 
L 243.14026 190.817193 
L 245.697937 185.96081 
L 248.255615 156.049757 
L 250.813293 101.3542 
L 253.37097 116.420402 
L 255.928648 154.127759 
L 258.486325 177.9232 
L 261.044003 194.288781 
L 263.601681 203.5193 
L 266.159358 217.052103 
L 268.717036 237.873401 
L 271.274714 242.116364 
L 273.832391 241.101923 
L 276.390069 241.32113 
L 278.947746 240.68405 
L 281.505424 234.856958 
L 284.063102 215.103249 
L 286.620779 169.726888 
L 289.178457 131.290395 
L 291.736134 182.089419 
L 294.293812 201.753313 
L 296.85149 194.515741 
L 299.409167 183.750137 
L 301.966845 184.263758 
L 304.524523 186.975382 
L 307.0822 184.276726 
L 309.639878 163.356811 
L 312.197555 119.928055 
L 314.755233 132.924488 
L 317.312911 167.730527 
L 319.870588 189.840851 
L 322.428266 198.040708 
L 324.985943 203.666278 
L 327.543621 214.285658 
L 330.101299 226.723626 
L 332.658976 233.663853 
L 335.216654 237.716177 
L 337.774332 241.016707 
L 340.332009 240.669965 
L 342.889687 234.633131 
L 345.447364 216.753345 
L 348.005042 169.652672 
L 350.56272 127.414811 
L 353.120397 183.70943 
L 355.678075 210.939569 
L 358.235752 206.83622 
L 360.79343 192.486462 
L 363.351108 194.472463 
L 365.908785 196.65356 
L 368.466463 195.118045 
L 371.024141 170.387923 
L 373.581818 121.554575 
" style="fill:none;stroke:#f08080;stroke-linecap:round;stroke-width:2;"/>
   </g>
   <g id="line2d_14">
    <path clip-path="url(#p778c1dad40)" d="M 69.218182 138.901174 
L 71.775859 171.012566 
L 74.333537 190.613026 
L 76.891215 197.285524 
L 79.448892 203.54099 
L 82.00657 204.792083 
L 84.564248 215.634891 
L 87.121925 219.38817 
L 89.679603 226.686214 
L 92.23728 237.529022 
L 94.794958 239.822693 
L 97.352636 240.031208 
L 99.910313 237.320506 
L 102.467991 234.81832 
L 105.025668 229.1884 
L 107.583346 224.184028 
L 110.141024 203.54099 
L 112.698701 172.055144 
L 115.256379 160.378274 
L 117.814057 175.391392 
L 120.371734 176.642486 
L 122.929412 178.31061 
L 125.487089 172.68069 
L 128.044767 209.379425 
L 130.602445 220.013717 
L 133.160122 218.345593 
L 135.7178 217.928562 
L 138.275477 218.554108 
L 140.833155 225.643636 
L 143.390833 225.435121 
L 145.94851 231.482071 
L 148.506188 234.401289 
L 151.063866 238.988631 
L 153.621543 240.031208 
L 156.179221 240.656755 
L 158.736898 238.154568 
L 161.294576 229.813947 
L 163.852254 210.004971 
L 166.409931 159.335696 
L 168.967609 172.889206 
L 171.525286 179.978734 
L 174.082964 177.893579 
L 176.640642 171.012566 
L 179.198319 157.667572 
L 181.755997 154.539839 
L 184.313675 164.965616 
L 186.871352 163.506007 
L 189.42903 138.484143 
L 191.986707 147.03328 
L 194.544385 164.7571 
L 197.102063 194.783337 
L 199.65974 210.630518 
L 202.217418 219.805201 
L 204.775095 227.728792 
L 207.332773 235.652382 
L 209.890451 239.405662 
L 212.448128 240.656755 
L 215.005806 241.490817 
L 217.563484 240.656755 
L 220.121161 238.154568 
L 222.678839 212.298642 
L 225.236516 166.63374 
L 227.794194 93.444787 
L 230.351872 162.463429 
L 232.909549 207.919816 
L 235.467227 201.872865 
L 238.024905 187.902325 
L 240.582582 192.489666 
L 243.14026 191.238573 
L 245.697937 189.153418 
L 248.255615 153.705777 
L 250.813293 74.052842 
L 253.37097 78.640184 
L 255.928648 134.939379 
L 258.486325 167.050771 
L 261.044003 195.200368 
L 263.601681 208.336847 
L 266.159358 224.601059 
L 268.717036 235.235351 
L 271.274714 240.448239 
L 273.832391 240.448239 
L 276.390069 240.86527 
L 278.947746 240.86527 
L 281.505424 233.775742 
L 284.063102 205.626145 
L 286.620779 136.398987 
L 289.178457 67.17183 
L 291.736134 165.799678 
L 294.293812 196.868493 
L 296.85149 181.438343 
L 299.409167 160.795305 
L 301.966845 180.18725 
L 304.524523 185.608654 
L 307.0822 175.599908 
L 309.639878 124.096571 
L 312.197555 44.443636 
L 314.755233 66.129252 
L 317.312911 124.096571 
L 319.870588 160.378274 
L 322.428266 186.025685 
L 324.985943 201.038803 
L 327.543621 213.758251 
L 330.101299 233.358711 
L 332.658976 239.822693 
L 335.216654 239.822693 
L 337.774332 241.490817 
L 340.332009 240.031208 
L 342.889687 233.358711 
L 345.447364 208.962394 
L 348.005042 142.445938 
L 350.56272 75.720967 
L 353.120397 168.093349 
L 355.678075 199.579194 
L 358.235752 189.778964 
L 360.79343 174.140299 
L 363.351108 181.438343 
L 365.908785 169.552957 
L 368.466463 146.199217 
L 371.024141 141.820391 
L 373.581818 69.674016 
" style="fill:none;stroke:#4c72b0;stroke-linecap:round;stroke-width:2;"/>
   </g>
   <g id="patch_3">
    <path d="M 54 252 
L 54 34.56 
" style="fill:none;stroke:#ffffff;stroke-linecap:square;stroke-linejoin:miter;stroke-width:1.25;"/>
   </g>
   <g id="patch_4">
    <path d="M 388.8 252 
L 388.8 34.56 
" style="fill:none;stroke:#ffffff;stroke-linecap:square;stroke-linejoin:miter;stroke-width:1.25;"/>
   </g>
   <g id="patch_5">
    <path d="M 54 252 
L 388.8 252 
" style="fill:none;stroke:#ffffff;stroke-linecap:square;stroke-linejoin:miter;stroke-width:1.25;"/>
   </g>
   <g id="patch_6">
    <path d="M 54 34.56 
L 388.8 34.56 
" style="fill:none;stroke:#ffffff;stroke-linecap:square;stroke-linejoin:miter;stroke-width:1.25;"/>
   </g>
   <g id="legend_1">
    <g id="patch_7">
     <path d="M 61.7 91.797813 
L 155.399375 91.797813 
Q 157.599375 91.797813 157.599375 89.597813 
L 157.599375 42.26 
Q 157.599375 40.06 155.399375 40.06 
L 61.7 40.06 
Q 59.5 40.06 59.5 42.26 
L 59.5 89.597813 
Q 59.5 91.797813 61.7 91.797813 
z
" style="fill:#eaeaf2;opacity:0.8;stroke:#cccccc;stroke-linejoin:miter;"/>
    </g>
    <g id="line2d_15">
     <path d="M 63.9 48.968281 
L 85.9 48.968281 
" style="fill:none;stroke:#f08080;stroke-linecap:round;stroke-width:2;"/>
    </g>
    <g id="line2d_16"/>
    <g id="text_13">
     <!-- Prediction -->
     <defs>
      <path d="M 19.671875 64.796875 
L 19.671875 37.40625 
L 32.078125 37.40625 
Q 38.96875 37.40625 42.71875 40.96875 
Q 46.484375 44.53125 46.484375 51.125 
Q 46.484375 57.671875 42.71875 61.234375 
Q 38.96875 64.796875 32.078125 64.796875 
z
M 9.8125 72.90625 
L 32.078125 72.90625 
Q 44.34375 72.90625 50.609375 67.359375 
Q 56.890625 61.8125 56.890625 51.125 
Q 56.890625 40.328125 50.609375 34.8125 
Q 44.34375 29.296875 32.078125 29.296875 
L 19.671875 29.296875 
L 19.671875 0 
L 9.8125 0 
z
" id="DejaVuSans-80"/>
      <path d="M 41.109375 46.296875 
Q 39.59375 47.171875 37.8125 47.578125 
Q 36.03125 48 33.890625 48 
Q 26.265625 48 22.1875 43.046875 
Q 18.109375 38.09375 18.109375 28.8125 
L 18.109375 0 
L 9.078125 0 
L 9.078125 54.6875 
L 18.109375 54.6875 
L 18.109375 46.1875 
Q 20.953125 51.171875 25.484375 53.578125 
Q 30.03125 56 36.53125 56 
Q 37.453125 56 38.578125 55.875 
Q 39.703125 55.765625 41.0625 55.515625 
z
" id="DejaVuSans-114"/>
      <path d="M 56.203125 29.59375 
L 56.203125 25.203125 
L 14.890625 25.203125 
Q 15.484375 15.921875 20.484375 11.0625 
Q 25.484375 6.203125 34.421875 6.203125 
Q 39.59375 6.203125 44.453125 7.46875 
Q 49.3125 8.734375 54.109375 11.28125 
L 54.109375 2.78125 
Q 49.265625 0.734375 44.1875 -0.34375 
Q 39.109375 -1.421875 33.890625 -1.421875 
Q 20.796875 -1.421875 13.15625 6.1875 
Q 5.515625 13.8125 5.515625 26.8125 
Q 5.515625 40.234375 12.765625 48.109375 
Q 20.015625 56 32.328125 56 
Q 43.359375 56 49.78125 48.890625 
Q 56.203125 41.796875 56.203125 29.59375 
z
M 47.21875 32.234375 
Q 47.125 39.59375 43.09375 43.984375 
Q 39.0625 48.390625 32.421875 48.390625 
Q 24.90625 48.390625 20.390625 44.140625 
Q 15.875 39.890625 15.1875 32.171875 
z
" id="DejaVuSans-101"/>
      <path d="M 45.40625 46.390625 
L 45.40625 75.984375 
L 54.390625 75.984375 
L 54.390625 0 
L 45.40625 0 
L 45.40625 8.203125 
Q 42.578125 3.328125 38.25 0.953125 
Q 33.9375 -1.421875 27.875 -1.421875 
Q 17.96875 -1.421875 11.734375 6.484375 
Q 5.515625 14.40625 5.515625 27.296875 
Q 5.515625 40.1875 11.734375 48.09375 
Q 17.96875 56 27.875 56 
Q 33.9375 56 38.25 53.625 
Q 42.578125 51.265625 45.40625 46.390625 
z
M 14.796875 27.296875 
Q 14.796875 17.390625 18.875 11.75 
Q 22.953125 6.109375 30.078125 6.109375 
Q 37.203125 6.109375 41.296875 11.75 
Q 45.40625 17.390625 45.40625 27.296875 
Q 45.40625 37.203125 41.296875 42.84375 
Q 37.203125 48.484375 30.078125 48.484375 
Q 22.953125 48.484375 18.875 42.84375 
Q 14.796875 37.203125 14.796875 27.296875 
z
" id="DejaVuSans-100"/>
      <path d="M 9.421875 54.6875 
L 18.40625 54.6875 
L 18.40625 0 
L 9.421875 0 
z
M 9.421875 75.984375 
L 18.40625 75.984375 
L 18.40625 64.59375 
L 9.421875 64.59375 
z
" id="DejaVuSans-105"/>
      <path d="M 48.78125 52.59375 
L 48.78125 44.1875 
Q 44.96875 46.296875 41.140625 47.34375 
Q 37.3125 48.390625 33.40625 48.390625 
Q 24.65625 48.390625 19.8125 42.84375 
Q 14.984375 37.3125 14.984375 27.296875 
Q 14.984375 17.28125 19.8125 11.734375 
Q 24.65625 6.203125 33.40625 6.203125 
Q 37.3125 6.203125 41.140625 7.25 
Q 44.96875 8.296875 48.78125 10.40625 
L 48.78125 2.09375 
Q 45.015625 0.34375 40.984375 -0.53125 
Q 36.96875 -1.421875 32.421875 -1.421875 
Q 20.0625 -1.421875 12.78125 6.34375 
Q 5.515625 14.109375 5.515625 27.296875 
Q 5.515625 40.671875 12.859375 48.328125 
Q 20.21875 56 33.015625 56 
Q 37.15625 56 41.109375 55.140625 
Q 45.0625 54.296875 48.78125 52.59375 
z
" id="DejaVuSans-99"/>
      <path d="M 18.3125 70.21875 
L 18.3125 54.6875 
L 36.8125 54.6875 
L 36.8125 47.703125 
L 18.3125 47.703125 
L 18.3125 18.015625 
Q 18.3125 11.328125 20.140625 9.421875 
Q 21.96875 7.515625 27.59375 7.515625 
L 36.8125 7.515625 
L 36.8125 0 
L 27.59375 0 
Q 17.1875 0 13.234375 3.875 
Q 9.28125 7.765625 9.28125 18.015625 
L 9.28125 47.703125 
L 2.6875 47.703125 
L 2.6875 54.6875 
L 9.28125 54.6875 
L 9.28125 70.21875 
z
" id="DejaVuSans-116"/>
      <path d="M 30.609375 48.390625 
Q 23.390625 48.390625 19.1875 42.75 
Q 14.984375 37.109375 14.984375 27.296875 
Q 14.984375 17.484375 19.15625 11.84375 
Q 23.34375 6.203125 30.609375 6.203125 
Q 37.796875 6.203125 41.984375 11.859375 
Q 46.1875 17.53125 46.1875 27.296875 
Q 46.1875 37.015625 41.984375 42.703125 
Q 37.796875 48.390625 30.609375 48.390625 
z
M 30.609375 56 
Q 42.328125 56 49.015625 48.375 
Q 55.71875 40.765625 55.71875 27.296875 
Q 55.71875 13.875 49.015625 6.21875 
Q 42.328125 -1.421875 30.609375 -1.421875 
Q 18.84375 -1.421875 12.171875 6.21875 
Q 5.515625 13.875 5.515625 27.296875 
Q 5.515625 40.765625 12.171875 48.375 
Q 18.84375 56 30.609375 56 
z
" id="DejaVuSans-111"/>
      <path d="M 54.890625 33.015625 
L 54.890625 0 
L 45.90625 0 
L 45.90625 32.71875 
Q 45.90625 40.484375 42.875 44.328125 
Q 39.84375 48.1875 33.796875 48.1875 
Q 26.515625 48.1875 22.3125 43.546875 
Q 18.109375 38.921875 18.109375 30.90625 
L 18.109375 0 
L 9.078125 0 
L 9.078125 54.6875 
L 18.109375 54.6875 
L 18.109375 46.1875 
Q 21.34375 51.125 25.703125 53.5625 
Q 30.078125 56 35.796875 56 
Q 45.21875 56 50.046875 50.171875 
Q 54.890625 44.34375 54.890625 33.015625 
z
" id="DejaVuSans-110"/>
     </defs>
     <g style="fill:#262626;" transform="translate(94.7 52.818281)scale(0.11 -0.11)">
      <use xlink:href="#DejaVuSans-80"/>
      <use x="60.287109" xlink:href="#DejaVuSans-114"/>
      <use x="101.369141" xlink:href="#DejaVuSans-101"/>
      <use x="162.892578" xlink:href="#DejaVuSans-100"/>
      <use x="226.369141" xlink:href="#DejaVuSans-105"/>
      <use x="254.152344" xlink:href="#DejaVuSans-99"/>
      <use x="309.132812" xlink:href="#DejaVuSans-116"/>
      <use x="348.341797" xlink:href="#DejaVuSans-105"/>
      <use x="376.125" xlink:href="#DejaVuSans-111"/>
      <use x="437.306641" xlink:href="#DejaVuSans-110"/>
     </g>
    </g>
    <g id="line2d_17">
     <path d="M 63.9 65.114219 
L 85.9 65.114219 
" style="fill:none;stroke:#4c72b0;stroke-linecap:round;stroke-width:2;"/>
    </g>
    <g id="line2d_18"/>
    <g id="text_14">
     <!-- True value -->
     <defs>
      <path d="M -0.296875 72.90625 
L 61.375 72.90625 
L 61.375 64.59375 
L 35.5 64.59375 
L 35.5 0 
L 25.59375 0 
L 25.59375 64.59375 
L -0.296875 64.59375 
z
" id="DejaVuSans-84"/>
      <path d="M 8.5 21.578125 
L 8.5 54.6875 
L 17.484375 54.6875 
L 17.484375 21.921875 
Q 17.484375 14.15625 20.5 10.265625 
Q 23.53125 6.390625 29.59375 6.390625 
Q 36.859375 6.390625 41.078125 11.03125 
Q 45.3125 15.671875 45.3125 23.6875 
L 45.3125 54.6875 
L 54.296875 54.6875 
L 54.296875 0 
L 45.3125 0 
L 45.3125 8.40625 
Q 42.046875 3.421875 37.71875 1 
Q 33.40625 -1.421875 27.6875 -1.421875 
Q 18.265625 -1.421875 13.375 4.4375 
Q 8.5 10.296875 8.5 21.578125 
z
M 31.109375 56 
z
" id="DejaVuSans-117"/>
      <path id="DejaVuSans-32"/>
      <path d="M 2.984375 54.6875 
L 12.5 54.6875 
L 29.59375 8.796875 
L 46.6875 54.6875 
L 56.203125 54.6875 
L 35.6875 0 
L 23.484375 0 
z
" id="DejaVuSans-118"/>
      <path d="M 34.28125 27.484375 
Q 23.390625 27.484375 19.1875 25 
Q 14.984375 22.515625 14.984375 16.5 
Q 14.984375 11.71875 18.140625 8.90625 
Q 21.296875 6.109375 26.703125 6.109375 
Q 34.1875 6.109375 38.703125 11.40625 
Q 43.21875 16.703125 43.21875 25.484375 
L 43.21875 27.484375 
z
M 52.203125 31.203125 
L 52.203125 0 
L 43.21875 0 
L 43.21875 8.296875 
Q 40.140625 3.328125 35.546875 0.953125 
Q 30.953125 -1.421875 24.3125 -1.421875 
Q 15.921875 -1.421875 10.953125 3.296875 
Q 6 8.015625 6 15.921875 
Q 6 25.140625 12.171875 29.828125 
Q 18.359375 34.515625 30.609375 34.515625 
L 43.21875 34.515625 
L 43.21875 35.40625 
Q 43.21875 41.609375 39.140625 45 
Q 35.0625 48.390625 27.6875 48.390625 
Q 23 48.390625 18.546875 47.265625 
Q 14.109375 46.140625 10.015625 43.890625 
L 10.015625 52.203125 
Q 14.9375 54.109375 19.578125 55.046875 
Q 24.21875 56 28.609375 56 
Q 40.484375 56 46.34375 49.84375 
Q 52.203125 43.703125 52.203125 31.203125 
z
" id="DejaVuSans-97"/>
      <path d="M 9.421875 75.984375 
L 18.40625 75.984375 
L 18.40625 0 
L 9.421875 0 
z
" id="DejaVuSans-108"/>
     </defs>
     <g style="fill:#262626;" transform="translate(94.7 68.964219)scale(0.11 -0.11)">
      <use xlink:href="#DejaVuSans-84"/>
      <use x="60.865234" xlink:href="#DejaVuSans-114"/>
      <use x="101.978516" xlink:href="#DejaVuSans-117"/>
      <use x="165.357422" xlink:href="#DejaVuSans-101"/>
      <use x="226.880859" xlink:href="#DejaVuSans-32"/>
      <use x="258.667969" xlink:href="#DejaVuSans-118"/>
      <use x="317.847656" xlink:href="#DejaVuSans-97"/>
      <use x="379.126953" xlink:href="#DejaVuSans-108"/>
      <use x="406.910156" xlink:href="#DejaVuSans-117"/>
      <use x="470.289062" xlink:href="#DejaVuSans-101"/>
     </g>
    </g>
    <g id="patch_8">
     <path d="M 63.9 85.110156 
L 85.9 85.110156 
L 85.9 77.410156 
L 63.9 77.410156 
z
" style="fill:#008000;opacity:0.2;stroke:#008000;stroke-linejoin:miter;stroke-width:2;"/>
    </g>
    <g id="text_15">
     <!-- 95% CI -->
     <defs>
      <path d="M 10.984375 1.515625 
L 10.984375 10.5 
Q 14.703125 8.734375 18.5 7.8125 
Q 22.3125 6.890625 25.984375 6.890625 
Q 35.75 6.890625 40.890625 13.453125 
Q 46.046875 20.015625 46.78125 33.40625 
Q 43.953125 29.203125 39.59375 26.953125 
Q 35.25 24.703125 29.984375 24.703125 
Q 19.046875 24.703125 12.671875 31.3125 
Q 6.296875 37.9375 6.296875 49.421875 
Q 6.296875 60.640625 12.9375 67.421875 
Q 19.578125 74.21875 30.609375 74.21875 
Q 43.265625 74.21875 49.921875 64.515625 
Q 56.59375 54.828125 56.59375 36.375 
Q 56.59375 19.140625 48.40625 8.859375 
Q 40.234375 -1.421875 26.421875 -1.421875 
Q 22.703125 -1.421875 18.890625 -0.6875 
Q 15.09375 0.046875 10.984375 1.515625 
z
M 30.609375 32.421875 
Q 37.25 32.421875 41.125 36.953125 
Q 45.015625 41.5 45.015625 49.421875 
Q 45.015625 57.28125 41.125 61.84375 
Q 37.25 66.40625 30.609375 66.40625 
Q 23.96875 66.40625 20.09375 61.84375 
Q 16.21875 57.28125 16.21875 49.421875 
Q 16.21875 41.5 20.09375 36.953125 
Q 23.96875 32.421875 30.609375 32.421875 
z
" id="DejaVuSans-57"/>
      <path d="M 10.796875 72.90625 
L 49.515625 72.90625 
L 49.515625 64.59375 
L 19.828125 64.59375 
L 19.828125 46.734375 
Q 21.96875 47.46875 24.109375 47.828125 
Q 26.265625 48.1875 28.421875 48.1875 
Q 40.625 48.1875 47.75 41.5 
Q 54.890625 34.8125 54.890625 23.390625 
Q 54.890625 11.625 47.5625 5.09375 
Q 40.234375 -1.421875 26.90625 -1.421875 
Q 22.3125 -1.421875 17.546875 -0.640625 
Q 12.796875 0.140625 7.71875 1.703125 
L 7.71875 11.625 
Q 12.109375 9.234375 16.796875 8.0625 
Q 21.484375 6.890625 26.703125 6.890625 
Q 35.15625 6.890625 40.078125 11.328125 
Q 45.015625 15.765625 45.015625 23.390625 
Q 45.015625 31 40.078125 35.4375 
Q 35.15625 39.890625 26.703125 39.890625 
Q 22.75 39.890625 18.8125 39.015625 
Q 14.890625 38.140625 10.796875 36.28125 
z
" id="DejaVuSans-53"/>
      <path d="M 72.703125 32.078125 
Q 68.453125 32.078125 66.03125 28.46875 
Q 63.625 24.859375 63.625 18.40625 
Q 63.625 12.0625 66.03125 8.421875 
Q 68.453125 4.78125 72.703125 4.78125 
Q 76.859375 4.78125 79.265625 8.421875 
Q 81.6875 12.0625 81.6875 18.40625 
Q 81.6875 24.8125 79.265625 28.4375 
Q 76.859375 32.078125 72.703125 32.078125 
z
M 72.703125 38.28125 
Q 80.421875 38.28125 84.953125 32.90625 
Q 89.5 27.546875 89.5 18.40625 
Q 89.5 9.28125 84.9375 3.921875 
Q 80.375 -1.421875 72.703125 -1.421875 
Q 64.890625 -1.421875 60.34375 3.921875 
Q 55.8125 9.28125 55.8125 18.40625 
Q 55.8125 27.59375 60.375 32.9375 
Q 64.9375 38.28125 72.703125 38.28125 
z
M 22.3125 68.015625 
Q 18.109375 68.015625 15.6875 64.375 
Q 13.28125 60.75 13.28125 54.390625 
Q 13.28125 47.953125 15.671875 44.328125 
Q 18.0625 40.71875 22.3125 40.71875 
Q 26.5625 40.71875 28.96875 44.328125 
Q 31.390625 47.953125 31.390625 54.390625 
Q 31.390625 60.6875 28.953125 64.34375 
Q 26.515625 68.015625 22.3125 68.015625 
z
M 66.40625 74.21875 
L 74.21875 74.21875 
L 28.609375 -1.421875 
L 20.796875 -1.421875 
z
M 22.3125 74.21875 
Q 30.03125 74.21875 34.609375 68.875 
Q 39.203125 63.53125 39.203125 54.390625 
Q 39.203125 45.171875 34.640625 39.84375 
Q 30.078125 34.515625 22.3125 34.515625 
Q 14.546875 34.515625 10.03125 39.859375 
Q 5.515625 45.21875 5.515625 54.390625 
Q 5.515625 63.484375 10.046875 68.84375 
Q 14.59375 74.21875 22.3125 74.21875 
z
" id="DejaVuSans-37"/>
      <path d="M 64.40625 67.28125 
L 64.40625 56.890625 
Q 59.421875 61.53125 53.78125 63.8125 
Q 48.140625 66.109375 41.796875 66.109375 
Q 29.296875 66.109375 22.65625 58.46875 
Q 16.015625 50.828125 16.015625 36.375 
Q 16.015625 21.96875 22.65625 14.328125 
Q 29.296875 6.6875 41.796875 6.6875 
Q 48.140625 6.6875 53.78125 8.984375 
Q 59.421875 11.28125 64.40625 15.921875 
L 64.40625 5.609375 
Q 59.234375 2.09375 53.4375 0.328125 
Q 47.65625 -1.421875 41.21875 -1.421875 
Q 24.65625 -1.421875 15.125 8.703125 
Q 5.609375 18.84375 5.609375 36.375 
Q 5.609375 53.953125 15.125 64.078125 
Q 24.65625 74.21875 41.21875 74.21875 
Q 47.75 74.21875 53.53125 72.484375 
Q 59.328125 70.75 64.40625 67.28125 
z
" id="DejaVuSans-67"/>
      <path d="M 9.8125 72.90625 
L 19.671875 72.90625 
L 19.671875 0 
L 9.8125 0 
z
" id="DejaVuSans-73"/>
     </defs>
     <g style="fill:#262626;" transform="translate(94.7 85.110156)scale(0.11 -0.11)">
      <use xlink:href="#DejaVuSans-57"/>
      <use x="63.623047" xlink:href="#DejaVuSans-53"/>
      <use x="127.246094" xlink:href="#DejaVuSans-37"/>
      <use x="222.265625" xlink:href="#DejaVuSans-32"/>
      <use x="254.052734" xlink:href="#DejaVuSans-67"/>
      <use x="323.876953" xlink:href="#DejaVuSans-73"/>
     </g>
    </g>
   </g>
  </g>
 </g>
 <defs>
  <clipPath id="p778c1dad40">
   <rect height="217.44" width="334.8" x="54" y="34.56"/>
  </clipPath>
 </defs>
</svg>
