<?xml version="1.0" encoding="utf-8" standalone="no"?>
<!DOCTYPE svg PUBLIC "-//W3C//DTD SVG 1.1//EN"
  "http://www.w3.org/Graphics/SVG/1.1/DTD/svg11.dtd">
<!-- Created with matplotlib (https://matplotlib.org/) -->
<svg height="288pt" version="1.1" viewBox="0 0 432 288" width="432pt" xmlns="http://www.w3.org/2000/svg" xmlns:xlink="http://www.w3.org/1999/xlink">
 <defs>
  <style type="text/css">
*{stroke-linecap:butt;stroke-linejoin:round;}
  </style>
 </defs>
 <g id="figure_1">
  <g id="patch_1">
   <path d="M 0 288 
L 432 288 
L 432 0 
L 0 0 
z
" style="fill:#ffffff;"/>
  </g>
  <g id="axes_1">
   <g id="patch_2">
    <path d="M 54 88.92 
L 221.4 88.92 
L 221.4 34.56 
L 54 34.56 
z
" style="fill:#eaeaf2;"/>
   </g>
   <g id="matplotlib.axis_1">
    <g id="xtick_1">
     <g id="line2d_1">
      <path clip-path="url(#p623b639e35)" d="M 61.609091 88.92 
L 61.609091 34.56 
" style="fill:none;stroke:#ffffff;stroke-linecap:round;"/>
     </g>
    </g>
    <g id="xtick_2">
     <g id="line2d_2">
      <path clip-path="url(#p623b639e35)" d="M 125.551031 88.92 
L 125.551031 34.56 
" style="fill:none;stroke:#ffffff;stroke-linecap:round;"/>
     </g>
    </g>
    <g id="xtick_3">
     <g id="line2d_3">
      <path clip-path="url(#p623b639e35)" d="M 189.492972 88.92 
L 189.492972 34.56 
" style="fill:none;stroke:#ffffff;stroke-linecap:round;"/>
     </g>
    </g>
   </g>
   <g id="matplotlib.axis_2">
    <g id="ytick_1">
     <g id="line2d_4">
      <path clip-path="url(#p623b639e35)" d="M 54 86.449091 
L 221.4 86.449091 
" style="fill:none;stroke:#ffffff;stroke-linecap:round;"/>
     </g>
     <g id="text_1">
      <!-- 0 -->
      <defs>
       <path d="M 31.78125 66.40625 
Q 24.171875 66.40625 20.328125 58.90625 
Q 16.5 51.421875 16.5 36.375 
Q 16.5 21.390625 20.328125 13.890625 
Q 24.171875 6.390625 31.78125 6.390625 
Q 39.453125 6.390625 43.28125 13.890625 
Q 47.125 21.390625 47.125 36.375 
Q 47.125 51.421875 43.28125 58.90625 
Q 39.453125 66.40625 31.78125 66.40625 
z
M 31.78125 74.21875 
Q 44.046875 74.21875 50.515625 64.515625 
Q 56.984375 54.828125 56.984375 36.375 
Q 56.984375 17.96875 50.515625 8.265625 
Q 44.046875 -1.421875 31.78125 -1.421875 
Q 19.53125 -1.421875 13.0625 8.265625 
Q 6.59375 17.96875 6.59375 36.375 
Q 6.59375 54.828125 13.0625 64.515625 
Q 19.53125 74.21875 31.78125 74.21875 
z
" id="DejaVuSans-48"/>
      </defs>
      <g style="fill:#262626;" transform="translate(37.50125 90.628232)scale(0.11 -0.11)">
       <use xlink:href="#DejaVuSans-48"/>
      </g>
     </g>
    </g>
    <g id="ytick_2">
     <g id="line2d_5">
      <path clip-path="url(#p623b639e35)" d="M 54 59.503517 
L 221.4 59.503517 
" style="fill:none;stroke:#ffffff;stroke-linecap:round;"/>
     </g>
     <g id="text_2">
      <!-- 500 -->
      <defs>
       <path d="M 10.796875 72.90625 
L 49.515625 72.90625 
L 49.515625 64.59375 
L 19.828125 64.59375 
L 19.828125 46.734375 
Q 21.96875 47.46875 24.109375 47.828125 
Q 26.265625 48.1875 28.421875 48.1875 
Q 40.625 48.1875 47.75 41.5 
Q 54.890625 34.8125 54.890625 23.390625 
Q 54.890625 11.625 47.5625 5.09375 
Q 40.234375 -1.421875 26.90625 -1.421875 
Q 22.3125 -1.421875 17.546875 -0.640625 
Q 12.796875 0.140625 7.71875 1.703125 
L 7.71875 11.625 
Q 12.109375 9.234375 16.796875 8.0625 
Q 21.484375 6.890625 26.703125 6.890625 
Q 35.15625 6.890625 40.078125 11.328125 
Q 45.015625 15.765625 45.015625 23.390625 
Q 45.015625 31 40.078125 35.4375 
Q 35.15625 39.890625 26.703125 39.890625 
Q 22.75 39.890625 18.8125 39.015625 
Q 14.890625 38.140625 10.796875 36.28125 
z
" id="DejaVuSans-53"/>
      </defs>
      <g style="fill:#262626;" transform="translate(23.50375 63.682658)scale(0.11 -0.11)">
       <use xlink:href="#DejaVuSans-53"/>
       <use x="63.623047" xlink:href="#DejaVuSans-48"/>
       <use x="127.246094" xlink:href="#DejaVuSans-48"/>
      </g>
     </g>
    </g>
    <g id="text_3">
     <!-- Used bikes -->
     <defs>
      <path d="M 8.6875 72.90625 
L 18.609375 72.90625 
L 18.609375 28.609375 
Q 18.609375 16.890625 22.84375 11.734375 
Q 27.09375 6.59375 36.625 6.59375 
Q 46.09375 6.59375 50.34375 11.734375 
Q 54.59375 16.890625 54.59375 28.609375 
L 54.59375 72.90625 
L 64.5 72.90625 
L 64.5 27.390625 
Q 64.5 13.140625 57.4375 5.859375 
Q 50.390625 -1.421875 36.625 -1.421875 
Q 22.796875 -1.421875 15.734375 5.859375 
Q 8.6875 13.140625 8.6875 27.390625 
z
" id="DejaVuSans-85"/>
      <path d="M 44.28125 53.078125 
L 44.28125 44.578125 
Q 40.484375 46.53125 36.375 47.5 
Q 32.28125 48.484375 27.875 48.484375 
Q 21.1875 48.484375 17.84375 46.4375 
Q 14.5 44.390625 14.5 40.28125 
Q 14.5 37.15625 16.890625 35.375 
Q 19.28125 33.59375 26.515625 31.984375 
L 29.59375 31.296875 
Q 39.15625 29.25 43.1875 25.515625 
Q 47.21875 21.78125 47.21875 15.09375 
Q 47.21875 7.46875 41.1875 3.015625 
Q 35.15625 -1.421875 24.609375 -1.421875 
Q 20.21875 -1.421875 15.453125 -0.5625 
Q 10.6875 0.296875 5.421875 2 
L 5.421875 11.28125 
Q 10.40625 8.6875 15.234375 7.390625 
Q 20.0625 6.109375 24.8125 6.109375 
Q 31.15625 6.109375 34.5625 8.28125 
Q 37.984375 10.453125 37.984375 14.40625 
Q 37.984375 18.0625 35.515625 20.015625 
Q 33.0625 21.96875 24.703125 23.78125 
L 21.578125 24.515625 
Q 13.234375 26.265625 9.515625 29.90625 
Q 5.8125 33.546875 5.8125 39.890625 
Q 5.8125 47.609375 11.28125 51.796875 
Q 16.75 56 26.8125 56 
Q 31.78125 56 36.171875 55.265625 
Q 40.578125 54.546875 44.28125 53.078125 
z
" id="DejaVuSans-115"/>
      <path d="M 56.203125 29.59375 
L 56.203125 25.203125 
L 14.890625 25.203125 
Q 15.484375 15.921875 20.484375 11.0625 
Q 25.484375 6.203125 34.421875 6.203125 
Q 39.59375 6.203125 44.453125 7.46875 
Q 49.3125 8.734375 54.109375 11.28125 
L 54.109375 2.78125 
Q 49.265625 0.734375 44.1875 -0.34375 
Q 39.109375 -1.421875 33.890625 -1.421875 
Q 20.796875 -1.421875 13.15625 6.1875 
Q 5.515625 13.8125 5.515625 26.8125 
Q 5.515625 40.234375 12.765625 48.109375 
Q 20.015625 56 32.328125 56 
Q 43.359375 56 49.78125 48.890625 
Q 56.203125 41.796875 56.203125 29.59375 
z
M 47.21875 32.234375 
Q 47.125 39.59375 43.09375 43.984375 
Q 39.0625 48.390625 32.421875 48.390625 
Q 24.90625 48.390625 20.390625 44.140625 
Q 15.875 39.890625 15.1875 32.171875 
z
" id="DejaVuSans-101"/>
      <path d="M 45.40625 46.390625 
L 45.40625 75.984375 
L 54.390625 75.984375 
L 54.390625 0 
L 45.40625 0 
L 45.40625 8.203125 
Q 42.578125 3.328125 38.25 0.953125 
Q 33.9375 -1.421875 27.875 -1.421875 
Q 17.96875 -1.421875 11.734375 6.484375 
Q 5.515625 14.40625 5.515625 27.296875 
Q 5.515625 40.1875 11.734375 48.09375 
Q 17.96875 56 27.875 56 
Q 33.9375 56 38.25 53.625 
Q 42.578125 51.265625 45.40625 46.390625 
z
M 14.796875 27.296875 
Q 14.796875 17.390625 18.875 11.75 
Q 22.953125 6.109375 30.078125 6.109375 
Q 37.203125 6.109375 41.296875 11.75 
Q 45.40625 17.390625 45.40625 27.296875 
Q 45.40625 37.203125 41.296875 42.84375 
Q 37.203125 48.484375 30.078125 48.484375 
Q 22.953125 48.484375 18.875 42.84375 
Q 14.796875 37.203125 14.796875 27.296875 
z
" id="DejaVuSans-100"/>
      <path id="DejaVuSans-32"/>
      <path d="M 48.6875 27.296875 
Q 48.6875 37.203125 44.609375 42.84375 
Q 40.53125 48.484375 33.40625 48.484375 
Q 26.265625 48.484375 22.1875 42.84375 
Q 18.109375 37.203125 18.109375 27.296875 
Q 18.109375 17.390625 22.1875 11.75 
Q 26.265625 6.109375 33.40625 6.109375 
Q 40.53125 6.109375 44.609375 11.75 
Q 48.6875 17.390625 48.6875 27.296875 
z
M 18.109375 46.390625 
Q 20.953125 51.265625 25.265625 53.625 
Q 29.59375 56 35.59375 56 
Q 45.5625 56 51.78125 48.09375 
Q 58.015625 40.1875 58.015625 27.296875 
Q 58.015625 14.40625 51.78125 6.484375 
Q 45.5625 -1.421875 35.59375 -1.421875 
Q 29.59375 -1.421875 25.265625 0.953125 
Q 20.953125 3.328125 18.109375 8.203125 
L 18.109375 0 
L 9.078125 0 
L 9.078125 75.984375 
L 18.109375 75.984375 
z
" id="DejaVuSans-98"/>
      <path d="M 9.421875 54.6875 
L 18.40625 54.6875 
L 18.40625 0 
L 9.421875 0 
z
M 9.421875 75.984375 
L 18.40625 75.984375 
L 18.40625 64.59375 
L 9.421875 64.59375 
z
" id="DejaVuSans-105"/>
      <path d="M 9.078125 75.984375 
L 18.109375 75.984375 
L 18.109375 31.109375 
L 44.921875 54.6875 
L 56.390625 54.6875 
L 27.390625 29.109375 
L 57.625 0 
L 45.90625 0 
L 18.109375 26.703125 
L 18.109375 0 
L 9.078125 0 
z
" id="DejaVuSans-107"/>
     </defs>
     <g style="fill:#262626;" transform="translate(17.008125 94.429688)rotate(-90)scale(0.12 -0.12)">
      <use xlink:href="#DejaVuSans-85"/>
      <use x="73.193359" xlink:href="#DejaVuSans-115"/>
      <use x="125.292969" xlink:href="#DejaVuSans-101"/>
      <use x="186.816406" xlink:href="#DejaVuSans-100"/>
      <use x="250.292969" xlink:href="#DejaVuSans-32"/>
      <use x="282.080078" xlink:href="#DejaVuSans-98"/>
      <use x="345.556641" xlink:href="#DejaVuSans-105"/>
      <use x="373.339844" xlink:href="#DejaVuSans-107"/>
      <use x="431.203125" xlink:href="#DejaVuSans-101"/>
      <use x="492.726562" xlink:href="#DejaVuSans-115"/>
     </g>
    </g>
   </g>
   <g id="line2d_6">
    <path clip-path="url(#p623b639e35)" d="M 61.609091 55.080131 
L 62.88793 54.783592 
L 64.166769 62.012289 
L 65.445607 66.16252 
L 66.724446 70.873908 
L 68.003285 75.256721 
L 69.282124 79.909774 
L 70.560963 83.139055 
L 71.839801 84.607449 
L 73.11864 85.438134 
L 74.397479 85.496733 
L 75.676318 85.645263 
L 76.955157 83.686321 
L 78.233995 76.963405 
L 79.512834 61.723027 
L 80.791673 53.11718 
L 82.070512 66.052257 
L 83.349351 72.795622 
L 84.628189 70.505132 
L 85.907028 64.040087 
L 87.185867 64.106987 
L 88.464706 66.723795 
L 89.743545 64.202889 
L 91.022383 58.248953 
L 92.301222 49.974017 
L 93.580061 53.059904 
L 94.8589 61.161175 
L 96.137739 67.250959 
L 97.416578 70.14398 
L 98.695416 72.427341 
L 99.974255 74.509343 
L 101.253094 77.919871 
L 102.531933 82.963608 
L 103.810772 83.389988 
L 105.08961 84.907257 
L 106.368449 85.468172 
L 107.647288 85.220505 
L 108.926127 84.852017 
L 110.204966 82.317075 
L 111.483804 76.483327 
L 112.762643 71.990406 
L 114.041482 67.681716 
L 115.320321 63.837553 
L 116.59916 61.048097 
L 117.877998 61.736015 
L 119.156837 62.511008 
L 120.435676 62.720706 
L 121.714515 64.061377 
L 122.993354 67.240249 
L 124.272193 70.269907 
L 125.551031 71.940209 
L 126.82987 74.481558 
L 128.108709 76.626928 
L 129.387548 77.701105 
L 130.666387 79.501005 
L 131.945225 79.670706 
L 133.224064 80.204736 
L 134.502903 81.456074 
L 135.781742 83.290376 
L 137.060581 86.251101 
L 138.339419 86.449091 
L 139.618258 85.767123 
L 140.897097 84.451355 
L 142.175936 82.080724 
L 143.454775 77.047108 
L 144.733613 70.936355 
L 146.012452 68.388776 
L 147.291291 66.049711 
L 148.57013 65.435823 
L 149.848969 66.114276 
L 151.127807 66.83932 
L 152.406646 67.698006 
L 153.685485 71.149064 
L 154.964324 74.676102 
L 156.243163 75.857881 
L 157.522002 78.433545 
L 158.80084 79.882801 
L 160.079679 81.219456 
L 161.358518 82.216877 
L 162.637357 83.434631 
L 163.916196 84.925581 
L 165.195034 85.991731 
L 166.473873 86.284413 
L 167.752712 86.128001 
L 169.031551 83.703319 
L 170.31039 76.524467 
L 171.589228 63.669538 
L 172.868067 55.666299 
L 174.146906 66.772448 
L 175.425745 74.61691 
L 176.704584 70.962231 
L 177.983422 66.562901 
L 179.262261 66.598556 
L 180.5411 68.370455 
L 181.819939 67.374064 
L 183.098778 61.186137 
L 184.377617 51.653142 
L 185.656455 55.005495 
L 186.935294 61.311681 
L 188.214133 66.455664 
L 189.492972 70.800885 
L 190.771811 75.533786 
L 192.050649 80.128142 
L 193.329488 83.915242 
L 194.608327 85.143769 
L 195.887166 85.861245 
L 197.166005 85.571865 
L 198.444843 85.605455 
L 199.723682 83.312037 
L 201.002521 76.113285 
L 202.28136 62.459998 
L 203.560199 55.597238 
L 204.839037 67.362364 
L 206.117876 75.755088 
L 207.396715 74.161329 
L 208.675554 70.328007 
L 209.954393 69.956443 
L 211.233231 71.087571 
L 212.51207 69.747302 
L 213.790909 62.832189 
" style="fill:none;stroke:#4c72b0;stroke-linecap:round;stroke-width:1.5;"/>
   </g>
   <g id="line2d_7">
    <path clip-path="url(#p623b639e35)" d="M 61.609091 56.108375 
L 62.88793 55.569464 
L 64.166769 65.647108 
L 65.445607 71.090114 
L 66.724446 74.377474 
L 68.003285 78.203745 
L 69.282124 79.712698 
L 70.560963 82.946166 
L 71.839801 85.317377 
L 73.11864 85.964071 
L 74.397479 86.125744 
L 75.676318 86.179635 
L 76.955157 84.50901 
L 78.233995 79.443242 
L 79.512834 66.67104 
L 80.791673 48.132485 
L 82.070512 67.533298 
L 83.349351 75.778644 
L 84.628189 74.700821 
L 85.907028 70.820658 
L 87.185867 71.467352 
L 88.464706 72.922413 
L 89.743545 72.060155 
L 91.022383 65.808782 
L 92.301222 55.192226 
L 93.580061 59.234062 
L 94.8589 68.55723 
L 96.137739 74.215801 
L 97.416578 76.856467 
L 98.695416 77.718725 
L 99.974255 79.551024 
L 101.253094 80.736629 
L 102.531933 81.760561 
L 103.810772 83.808425 
L 105.08961 85.317377 
L 106.368449 86.071853 
L 107.647288 85.856288 
L 108.926127 85.317377 
L 110.204966 82.245581 
L 111.483804 77.395378 
L 112.762643 73.084086 
L 114.041482 69.203924 
L 115.320321 63.653136 
L 116.59916 60.796905 
L 117.877998 58.156239 
L 119.156837 56.539504 
L 120.435676 56.862851 
L 121.714515 61.174143 
L 122.993354 64.730959 
L 124.272193 71.84459 
L 125.551031 72.814631 
L 126.82987 77.179814 
L 128.108709 78.958221 
L 129.387548 78.634875 
L 130.666387 79.281568 
L 131.945225 79.497133 
L 133.224064 81.329432 
L 134.502903 82.515037 
L 135.781742 83.970098 
L 137.060581 85.802397 
L 138.339419 85.802397 
L 139.618258 85.640724 
L 140.897097 84.185663 
L 142.175936 80.036044 
L 143.454775 75.455297 
L 144.733613 68.718904 
L 146.012452 67.102169 
L 147.291291 62.629204 
L 148.57013 62.359748 
L 149.848969 63.38368 
L 151.127807 64.515394 
L 152.406646 66.401584 
L 153.685485 71.35957 
L 154.964324 71.575134 
L 156.243163 75.13195 
L 157.522002 79.497133 
L 158.80084 80.521065 
L 160.079679 82.461146 
L 161.358518 83.269513 
L 162.637357 84.99403 
L 163.916196 85.425159 
L 165.195034 86.179635 
L 166.473873 86.341309 
L 167.752712 85.802397 
L 169.031551 84.347336 
L 170.31039 79.389351 
L 171.589228 65.647108 
L 172.868067 50.71926 
L 174.146906 71.467352 
L 175.425745 78.958221 
L 176.704584 75.832535 
L 177.983422 73.407433 
L 179.262261 72.922413 
L 180.5411 74.754712 
L 181.819939 72.599066 
L 183.098778 65.970455 
L 184.377617 53.090471 
L 185.656455 55.192226 
L 186.935294 64.569285 
L 188.214133 72.491284 
L 189.492972 75.509188 
L 190.771811 80.359391 
L 192.050649 82.461146 
L 193.329488 84.886248 
L 194.608327 85.748506 
L 195.887166 86.179635 
L 197.166005 86.341309 
L 198.444843 86.125744 
L 199.723682 84.616792 
L 201.002521 78.473201 
L 202.28136 63.922591 
L 203.560199 50.611478 
L 204.839037 68.880577 
L 206.117876 76.964249 
L 207.396715 75.401406 
L 208.675554 69.581162 
L 209.954393 72.060155 
L 211.233231 74.377474 
L 212.51207 70.982332 
L 213.790909 65.162088 
" style="fill:none;stroke:#dd8452;stroke-linecap:round;stroke-width:1.5;"/>
   </g>
   <g id="patch_3">
    <path d="M 54 88.92 
L 54 34.56 
" style="fill:none;stroke:#ffffff;stroke-linecap:square;stroke-linejoin:miter;stroke-width:1.25;"/>
   </g>
   <g id="patch_4">
    <path d="M 221.4 88.92 
L 221.4 34.56 
" style="fill:none;stroke:#ffffff;stroke-linecap:square;stroke-linejoin:miter;stroke-width:1.25;"/>
   </g>
   <g id="patch_5">
    <path d="M 54 88.92 
L 221.4 88.92 
" style="fill:none;stroke:#ffffff;stroke-linecap:square;stroke-linejoin:miter;stroke-width:1.25;"/>
   </g>
   <g id="patch_6">
    <path d="M 54 34.56 
L 221.4 34.56 
" style="fill:none;stroke:#ffffff;stroke-linecap:square;stroke-linejoin:miter;stroke-width:1.25;"/>
   </g>
  </g>
  <g id="axes_2">
   <g id="patch_7">
    <path d="M 221.4 88.92 
L 388.8 88.92 
L 388.8 34.56 
L 221.4 34.56 
z
" style="fill:#eaeaf2;"/>
   </g>
   <g id="matplotlib.axis_3">
    <g id="xtick_4">
     <g id="line2d_8">
      <path clip-path="url(#pc9be310bfa)" d="M 229.009091 88.92 
L 229.009091 34.56 
" style="fill:none;stroke:#ffffff;stroke-linecap:round;"/>
     </g>
    </g>
    <g id="xtick_5">
     <g id="line2d_9">
      <path clip-path="url(#pc9be310bfa)" d="M 292.951031 88.92 
L 292.951031 34.56 
" style="fill:none;stroke:#ffffff;stroke-linecap:round;"/>
     </g>
    </g>
    <g id="xtick_6">
     <g id="line2d_10">
      <path clip-path="url(#pc9be310bfa)" d="M 356.892972 88.92 
L 356.892972 34.56 
" style="fill:none;stroke:#ffffff;stroke-linecap:round;"/>
     </g>
    </g>
   </g>
   <g id="matplotlib.axis_4">
    <g id="ytick_3">
     <g id="line2d_11">
      <path clip-path="url(#pc9be310bfa)" d="M 221.4 86.449091 
L 388.8 86.449091 
" style="fill:none;stroke:#ffffff;stroke-linecap:round;"/>
     </g>
    </g>
    <g id="ytick_4">
     <g id="line2d_12">
      <path clip-path="url(#pc9be310bfa)" d="M 221.4 59.503517 
L 388.8 59.503517 
" style="fill:none;stroke:#ffffff;stroke-linecap:round;"/>
     </g>
    </g>
   </g>
   <g id="line2d_13">
    <path clip-path="url(#pc9be310bfa)" d="M 229.009091 83.916508 
L 230.28793 84.789706 
L 231.566769 85.30456 
L 232.845607 85.120421 
L 234.124446 84.940878 
L 235.403285 82.607713 
L 236.682124 74.617844 
L 237.960963 62.475431 
L 239.239801 54.506998 
L 240.51864 65.947463 
L 241.797479 74.393313 
L 243.076318 73.383005 
L 244.355157 70.372701 
L 245.633995 70.834157 
L 246.912834 73.222002 
L 248.191673 72.696712 
L 249.470512 68.281035 
L 250.749351 59.820005 
L 252.028189 61.308142 
L 253.307028 66.058018 
L 254.585867 71.41341 
L 255.864706 74.111925 
L 257.143545 77.836586 
L 258.422383 81.967454 
L 259.701222 84.592458 
L 260.980061 85.640927 
L 262.2589 85.968502 
L 263.537739 86.338375 
L 264.816578 86.100875 
L 266.095416 84.22086 
L 267.374255 77.70065 
L 268.653094 66.124042 
L 269.931933 56.70595 
L 271.210772 66.062076 
L 272.48961 74.215294 
L 273.768449 72.168205 
L 275.047288 69.179103 
L 276.326127 68.415366 
L 277.604966 70.14367 
L 278.883804 68.868446 
L 280.162643 63.599187 
L 281.441482 55.353264 
L 282.720321 57.245822 
L 283.99916 61.618914 
L 285.277998 66.351958 
L 286.556837 70.865604 
L 287.835676 74.540855 
L 289.114515 78.962 
L 290.393354 83.754824 
L 291.672193 84.298912 
L 292.951031 84.647519 
L 294.22987 84.875786 
L 295.508709 85.302219 
L 296.787548 83.796948 
L 298.066387 78.75872 
L 299.345225 67.290821 
L 300.624064 57.461061 
L 301.902903 67.279297 
L 303.181742 73.712194 
L 304.460581 73.424964 
L 305.739419 69.410811 
L 307.018258 69.142323 
L 308.297097 71.163042 
L 309.575936 69.067939 
L 310.854775 64.235127 
L 312.133613 56.321772 
L 313.412452 59.610953 
L 314.691291 65.213923 
L 315.97013 71.079526 
L 317.248969 73.89795 
L 318.527807 75.377677 
L 319.806646 77.256545 
L 321.085485 79.789843 
L 322.364324 81.628671 
L 323.643163 82.254931 
L 324.922002 82.880588 
L 326.20084 84.652093 
L 327.479679 83.60124 
L 328.758518 82.076104 
L 330.037357 79.618574 
L 331.316196 75.685393 
L 332.595034 74.241811 
L 333.873873 72.052272 
L 335.152712 67.013267 
L 336.431551 64.125427 
L 337.71039 61.692044 
L 338.989228 62.09371 
L 340.268067 62.726385 
L 341.546906 63.555576 
L 342.825745 66.483551 
L 344.104584 69.903885 
L 345.383422 73.956534 
L 346.662261 77.551971 
L 347.9411 78.999594 
L 349.219939 79.894257 
L 350.498778 81.232355 
L 351.777617 81.003174 
L 353.056455 81.600019 
L 354.335294 83.009452 
L 355.614133 85.244146 
L 356.892972 86.449091 
L 358.171811 86.449091 
L 359.450649 86.084846 
L 360.729488 85.236156 
L 362.008327 82.505888 
L 363.287166 77.312164 
L 364.566005 72.921258 
L 365.844843 69.575496 
L 367.123682 67.540719 
L 368.402521 66.089885 
L 369.68136 66.600775 
L 370.960199 67.433295 
L 372.239037 67.884523 
L 373.517876 67.296979 
L 374.796715 69.860191 
L 376.075554 72.200885 
L 377.354393 76.545628 
L 378.633231 79.577394 
L 379.91207 81.322693 
L 381.190909 83.736327 
" style="fill:none;stroke:#4c72b0;stroke-linecap:round;stroke-width:1.5;"/>
   </g>
   <g id="line2d_14">
    <path clip-path="url(#pc9be310bfa)" d="M 229.009091 84.239554 
L 230.28793 85.640724 
L 231.566769 86.287417 
L 232.845607 86.179635 
L 234.124446 86.071853 
L 235.403285 84.778465 
L 236.682124 80.413282 
L 237.960963 66.886605 
L 239.239801 49.910893 
L 240.51864 69.365597 
L 241.797479 77.610943 
L 243.076318 75.670862 
L 244.355157 73.73078 
L 245.633995 74.970277 
L 246.912834 74.700821 
L 248.191673 73.676889 
L 249.470512 68.449448 
L 250.749351 56.162266 
L 252.028189 55.785028 
L 253.307028 68.341666 
L 254.585867 73.461324 
L 255.864706 77.395378 
L 257.143545 79.497133 
L 258.422383 81.70667 
L 259.701222 84.185663 
L 260.980061 85.371268 
L 262.2589 86.017962 
L 263.537739 86.233526 
L 264.816578 86.125744 
L 266.095416 84.562901 
L 267.374255 80.089936 
L 268.653094 67.587189 
L 269.931933 54.168294 
L 271.210772 69.365597 
L 272.48961 77.772616 
L 273.768449 76.209773 
L 275.047288 75.024168 
L 276.326127 74.754712 
L 277.604966 74.916385 
L 278.883804 73.030195 
L 280.162643 70.173965 
L 281.441482 60.850796 
L 282.720321 65.916564 
L 283.99916 80.089936 
L 285.277998 83.754534 
L 286.556837 85.047921 
L 287.835676 85.317377 
L 289.114515 85.748506 
L 290.393354 85.532941 
L 291.672193 85.964071 
L 292.951031 86.287417 
L 294.22987 86.287417 
L 295.508709 86.125744 
L 296.787548 85.748506 
L 298.066387 82.137799 
L 299.345225 75.239732 
L 300.624064 61.01247 
L 301.902903 72.060155 
L 303.181742 78.149854 
L 304.460581 77.718725 
L 305.739419 74.377474 
L 307.018258 73.515216 
L 308.297097 74.64693 
L 309.575936 72.275719 
L 310.854775 71.305679 
L 312.133613 69.150033 
L 313.412452 73.353542 
L 314.691291 78.203745 
L 315.97013 80.413282 
L 317.248969 82.676711 
L 318.527807 83.053949 
L 319.806646 84.293445 
L 321.085485 84.778465 
L 322.364324 84.562901 
L 323.643163 85.209595 
L 324.922002 86.071853 
L 326.20084 86.179635 
L 327.479679 86.179635 
L 328.758518 85.748506 
L 330.037357 85.371268 
L 331.316196 84.886248 
L 332.595034 81.598888 
L 333.873873 80.089936 
L 335.152712 77.880399 
L 336.431551 78.580983 
L 337.71039 77.93429 
L 338.989228 77.772616 
L 340.268067 78.203745 
L 341.546906 78.527092 
L 342.825745 80.3055 
L 344.104584 82.030017 
L 345.383422 83.215622 
L 346.662261 83.161731 
L 347.9411 83.59286 
L 349.219939 84.347336 
L 350.498778 84.293445 
L 351.777617 84.99403 
L 353.056455 85.371268 
L 354.335294 85.47905 
L 355.614133 85.964071 
L 356.892972 86.233526 
L 358.171811 86.125744 
L 359.450649 85.964071 
L 360.729488 85.425159 
L 362.008327 83.862316 
L 363.287166 83.431187 
L 364.566005 81.437214 
L 365.844843 78.257637 
L 367.123682 75.886426 
L 368.402521 76.425338 
L 369.68136 77.01814 
L 370.960199 79.066004 
L 372.239037 76.209773 
L 373.517876 80.3055 
L 374.796715 81.437214 
L 376.075554 83.323404 
L 377.354393 83.646751 
L 378.633231 84.185663 
L 379.91207 83.323404 
L 381.190909 85.101812 
" style="fill:none;stroke:#dd8452;stroke-linecap:round;stroke-width:1.5;"/>
   </g>
   <g id="patch_8">
    <path d="M 221.4 88.92 
L 221.4 34.56 
" style="fill:none;stroke:#ffffff;stroke-linecap:square;stroke-linejoin:miter;stroke-width:1.25;"/>
   </g>
   <g id="patch_9">
    <path d="M 388.8 88.92 
L 388.8 34.56 
" style="fill:none;stroke:#ffffff;stroke-linecap:square;stroke-linejoin:miter;stroke-width:1.25;"/>
   </g>
   <g id="patch_10">
    <path d="M 221.4 88.92 
L 388.8 88.92 
" style="fill:none;stroke:#ffffff;stroke-linecap:square;stroke-linejoin:miter;stroke-width:1.25;"/>
   </g>
   <g id="patch_11">
    <path d="M 221.4 34.56 
L 388.8 34.56 
" style="fill:none;stroke:#ffffff;stroke-linecap:square;stroke-linejoin:miter;stroke-width:1.25;"/>
   </g>
  </g>
  <g id="axes_3">
   <g id="patch_12">
    <path d="M 54 170.46 
L 221.4 170.46 
L 221.4 116.1 
L 54 116.1 
z
" style="fill:#eaeaf2;"/>
   </g>
   <g id="matplotlib.axis_5">
    <g id="xtick_7">
     <g id="line2d_15">
      <path clip-path="url(#pce51287c97)" d="M 61.609091 170.46 
L 61.609091 116.1 
" style="fill:none;stroke:#ffffff;stroke-linecap:round;"/>
     </g>
    </g>
    <g id="xtick_8">
     <g id="line2d_16">
      <path clip-path="url(#pce51287c97)" d="M 125.551031 170.46 
L 125.551031 116.1 
" style="fill:none;stroke:#ffffff;stroke-linecap:round;"/>
     </g>
    </g>
    <g id="xtick_9">
     <g id="line2d_17">
      <path clip-path="url(#pce51287c97)" d="M 189.492972 170.46 
L 189.492972 116.1 
" style="fill:none;stroke:#ffffff;stroke-linecap:round;"/>
     </g>
    </g>
   </g>
   <g id="matplotlib.axis_6">
    <g id="ytick_5">
     <g id="line2d_18">
      <path clip-path="url(#pce51287c97)" d="M 54 167.989091 
L 221.4 167.989091 
" style="fill:none;stroke:#ffffff;stroke-linecap:round;"/>
     </g>
     <g id="text_4">
      <!-- 0 -->
      <g style="fill:#262626;" transform="translate(37.50125 172.168232)scale(0.11 -0.11)">
       <use xlink:href="#DejaVuSans-48"/>
      </g>
     </g>
    </g>
    <g id="ytick_6">
     <g id="line2d_19">
      <path clip-path="url(#pce51287c97)" d="M 54 141.043517 
L 221.4 141.043517 
" style="fill:none;stroke:#ffffff;stroke-linecap:round;"/>
     </g>
     <g id="text_5">
      <!-- 500 -->
      <g style="fill:#262626;" transform="translate(23.50375 145.222658)scale(0.11 -0.11)">
       <use xlink:href="#DejaVuSans-53"/>
       <use x="63.623047" xlink:href="#DejaVuSans-48"/>
       <use x="127.246094" xlink:href="#DejaVuSans-48"/>
      </g>
     </g>
    </g>
    <g id="text_6">
     <!-- Used bikes -->
     <g style="fill:#262626;" transform="translate(17.008125 175.969687)rotate(-90)scale(0.12 -0.12)">
      <use xlink:href="#DejaVuSans-85"/>
      <use x="73.193359" xlink:href="#DejaVuSans-115"/>
      <use x="125.292969" xlink:href="#DejaVuSans-101"/>
      <use x="186.816406" xlink:href="#DejaVuSans-100"/>
      <use x="250.292969" xlink:href="#DejaVuSans-32"/>
      <use x="282.080078" xlink:href="#DejaVuSans-98"/>
      <use x="345.556641" xlink:href="#DejaVuSans-105"/>
      <use x="373.339844" xlink:href="#DejaVuSans-107"/>
      <use x="431.203125" xlink:href="#DejaVuSans-101"/>
      <use x="492.726562" xlink:href="#DejaVuSans-115"/>
     </g>
    </g>
   </g>
   <g id="line2d_20">
    <path clip-path="url(#pce51287c97)" d="M 61.609091 165.245956 
L 62.88793 160.166536 
L 64.166769 149.217208 
L 65.445607 136.233183 
L 66.724446 149.530082 
L 68.003285 155.57396 
L 69.282124 153.084738 
L 70.560963 148.816263 
L 71.839801 149.685082 
L 73.11864 151.915767 
L 74.397479 150.015469 
L 75.676318 143.164912 
L 76.955157 130.143888 
L 78.233995 133.777508 
L 79.512834 142.07984 
L 80.791673 148.546993 
L 82.070512 151.534238 
L 83.349351 154.566179 
L 84.628189 158.769203 
L 85.907028 164.520586 
L 87.185867 166.319144 
L 88.464706 166.625103 
L 89.743545 166.952319 
L 91.022383 166.888211 
L 92.301222 165.023378 
L 93.580061 157.510022 
L 94.8589 142.699943 
L 96.137739 133.272509 
L 97.416578 146.146475 
L 98.695416 155.96182 
L 99.974255 151.340606 
L 101.253094 147.752362 
L 102.531933 147.154097 
L 103.810772 148.571697 
L 105.08961 146.418641 
L 106.368449 137.772002 
L 107.647288 126.383221 
L 108.926127 131.016159 
L 110.204966 139.458077 
L 111.483804 145.300967 
L 112.762643 149.53297 
L 114.041482 153.008882 
L 115.320321 158.001295 
L 116.59916 164.242253 
L 117.877998 165.714881 
L 119.156837 166.072636 
L 120.435676 165.918697 
L 121.714515 166.179446 
L 122.993354 163.574482 
L 124.272193 156.925127 
L 125.551031 142.060162 
L 126.82987 130.210571 
L 128.108709 145.02107 
L 129.387548 149.622895 
L 130.666387 146.758545 
L 131.945225 140.769172 
L 133.224064 140.467342 
L 134.502903 144.484102 
L 135.781742 140.192377 
L 137.060581 132.995109 
L 138.339419 126.496365 
L 139.618258 131.855962 
L 140.897097 139.686664 
L 142.175936 145.83933 
L 143.454775 148.350759 
L 144.733613 149.75761 
L 146.012452 152.695858 
L 147.291291 153.188564 
L 148.57013 159.374833 
L 149.848969 160.920275 
L 151.127807 163.62546 
L 152.406646 165.038151 
L 153.685485 163.924811 
L 154.964324 162.452027 
L 156.243163 158.974591 
L 157.522002 153.75783 
L 158.80084 150.111399 
L 160.079679 146.584339 
L 161.358518 144.310124 
L 162.637357 142.448781 
L 163.916196 142.050167 
L 165.195034 142.59747 
L 166.473873 142.111487 
L 167.752712 142.089673 
L 169.031551 143.401892 
L 170.31039 146.585721 
L 171.589228 149.668813 
L 172.868067 154.789797 
L 174.146906 155.388949 
L 175.425745 155.438677 
L 176.704584 157.561183 
L 177.983422 158.760975 
L 179.262261 161.416074 
L 180.5411 162.188998 
L 181.819939 164.584622 
L 183.098778 167.403729 
L 184.377617 167.245547 
L 185.656455 166.211684 
L 186.935294 163.97769 
L 188.214133 159.987674 
L 189.492972 156.710981 
L 190.771811 150.323662 
L 192.050649 146.310068 
L 193.329488 143.312258 
L 194.608327 141.924799 
L 195.887166 141.833654 
L 197.166005 142.51174 
L 198.444843 140.884831 
L 199.723682 142.991536 
L 201.002521 146.821956 
L 202.28136 150.496462 
L 203.560199 154.87632 
L 204.839037 157.266736 
L 206.117876 158.368162 
L 207.396715 161.541376 
L 208.675554 158.915643 
L 209.954393 160.710292 
L 211.233231 163.379796 
L 212.51207 163.599387 
L 213.790909 165.8031 
" style="fill:none;stroke:#4c72b0;stroke-linecap:round;stroke-width:1.5;"/>
   </g>
   <g id="line2d_21">
    <path clip-path="url(#pce51287c97)" d="M 61.609091 166.156792 
L 62.88793 158.450358 
L 64.166769 140.23515 
L 65.445607 124.391153 
L 66.724446 148.480496 
L 68.003285 158.55814 
L 69.282124 155.594127 
L 70.560963 148.69606 
L 71.839801 152.953461 
L 73.11864 154.462413 
L 74.397479 150.797815 
L 75.676318 142.229123 
L 76.955157 118.570909 
L 78.233995 124.337262 
L 79.512834 136.031641 
L 80.791673 141.205191 
L 82.070512 156.725841 
L 83.349351 155.001324 
L 84.628189 156.133039 
L 85.907028 163.893364 
L 87.185867 166.641812 
L 88.464706 167.288506 
L 89.743545 167.396288 
L 91.022383 167.450179 
L 92.301222 165.887336 
L 93.580061 160.821568 
L 94.8589 146.917652 
L 96.137739 128.217424 
L 97.416578 148.642169 
L 98.695416 158.450358 
L 99.974255 156.456385 
L 101.253094 152.468441 
L 102.531933 152.145094 
L 103.810772 153.600155 
L 105.08961 150.474468 
L 106.368449 141.205191 
L 107.647288 119.433167 
L 108.926127 120.187644 
L 110.204966 139.211218 
L 111.483804 144.223095 
L 112.762643 150.690033 
L 114.041482 155.486345 
L 115.320321 159.635963 
L 116.59916 162.492194 
L 117.877998 165.510098 
L 119.156837 167.396288 
L 120.435676 167.126833 
L 121.714515 167.396288 
L 122.993354 165.779554 
L 124.272193 160.606004 
L 125.551031 144.92368 
L 126.82987 125.68454 
L 128.108709 147.29489 
L 129.387548 153.977393 
L 130.666387 151.606182 
L 131.945225 142.768034 
L 133.224064 145.139245 
L 134.502903 146.432632 
L 135.781742 142.660252 
L 137.060581 133.822104 
L 138.339419 119.487059 
L 139.618258 126.977928 
L 140.897097 141.043517 
L 142.175936 147.941584 
L 143.454775 153.600155 
L 144.733613 153.761828 
L 146.012452 158.773705 
L 147.291291 157.695882 
L 148.57013 160.390439 
L 149.848969 163.947255 
L 151.127807 164.971187 
L 152.406646 167.396288 
L 153.685485 167.450179 
L 154.964324 166.372356 
L 156.243163 163.462235 
L 157.522002 156.887515 
L 158.80084 146.702088 
L 160.079679 138.941763 
L 161.358518 133.121519 
L 162.637357 127.947969 
L 163.916196 129.726377 
L 165.195034 136.94779 
L 166.473873 134.57658 
L 167.752712 132.474825 
L 169.031551 135.115491 
L 170.31039 141.312973 
L 171.589228 149.61221 
L 172.868067 154.677978 
L 174.146906 156.402494 
L 175.425745 158.019229 
L 176.704584 158.342576 
L 177.983422 161.144915 
L 179.262261 162.114956 
L 180.5411 164.001146 
L 181.819939 166.803486 
L 183.098778 167.396288 
L 184.377617 167.450179 
L 185.656455 166.749595 
L 186.935294 166.102901 
L 188.214133 164.64784 
L 189.492972 163.354452 
L 190.771811 158.019229 
L 192.050649 149.881666 
L 193.329488 146.863761 
L 194.608327 150.743924 
L 195.887166 151.067271 
L 197.166005 151.4984 
L 198.444843 150.043339 
L 199.723682 159.528181 
L 201.002521 162.276629 
L 202.28136 161.8455 
L 203.560199 161.737718 
L 204.839037 161.899391 
L 206.117876 163.73169 
L 207.396715 163.677799 
L 208.675554 165.240642 
L 209.954393 165.995118 
L 211.233231 167.180724 
L 212.51207 167.450179 
L 213.790909 167.611853 
" style="fill:none;stroke:#dd8452;stroke-linecap:round;stroke-width:1.5;"/>
   </g>
   <g id="patch_13">
    <path d="M 54 170.46 
L 54 116.1 
" style="fill:none;stroke:#ffffff;stroke-linecap:square;stroke-linejoin:miter;stroke-width:1.25;"/>
   </g>
   <g id="patch_14">
    <path d="M 221.4 170.46 
L 221.4 116.1 
" style="fill:none;stroke:#ffffff;stroke-linecap:square;stroke-linejoin:miter;stroke-width:1.25;"/>
   </g>
   <g id="patch_15">
    <path d="M 54 170.46 
L 221.4 170.46 
" style="fill:none;stroke:#ffffff;stroke-linecap:square;stroke-linejoin:miter;stroke-width:1.25;"/>
   </g>
   <g id="patch_16">
    <path d="M 54 116.1 
L 221.4 116.1 
" style="fill:none;stroke:#ffffff;stroke-linecap:square;stroke-linejoin:miter;stroke-width:1.25;"/>
   </g>
  </g>
  <g id="axes_4">
   <g id="patch_17">
    <path d="M 221.4 170.46 
L 388.8 170.46 
L 388.8 116.1 
L 221.4 116.1 
z
" style="fill:#eaeaf2;"/>
   </g>
   <g id="matplotlib.axis_7">
    <g id="xtick_10">
     <g id="line2d_22">
      <path clip-path="url(#p77343b144c)" d="M 229.009091 170.46 
L 229.009091 116.1 
" style="fill:none;stroke:#ffffff;stroke-linecap:round;"/>
     </g>
    </g>
    <g id="xtick_11">
     <g id="line2d_23">
      <path clip-path="url(#p77343b144c)" d="M 292.951031 170.46 
L 292.951031 116.1 
" style="fill:none;stroke:#ffffff;stroke-linecap:round;"/>
     </g>
    </g>
    <g id="xtick_12">
     <g id="line2d_24">
      <path clip-path="url(#p77343b144c)" d="M 356.892972 170.46 
L 356.892972 116.1 
" style="fill:none;stroke:#ffffff;stroke-linecap:round;"/>
     </g>
    </g>
   </g>
   <g id="matplotlib.axis_8">
    <g id="ytick_7">
     <g id="line2d_25">
      <path clip-path="url(#p77343b144c)" d="M 221.4 167.989091 
L 388.8 167.989091 
" style="fill:none;stroke:#ffffff;stroke-linecap:round;"/>
     </g>
    </g>
    <g id="ytick_8">
     <g id="line2d_26">
      <path clip-path="url(#p77343b144c)" d="M 221.4 141.043517 
L 388.8 141.043517 
" style="fill:none;stroke:#ffffff;stroke-linecap:round;"/>
     </g>
    </g>
   </g>
   <g id="line2d_27">
    <path clip-path="url(#p77343b144c)" d="M 229.009091 158.309464 
L 230.28793 150.214032 
L 231.566769 137.028755 
L 232.845607 149.698791 
L 234.124446 155.650938 
L 235.403285 153.067777 
L 236.682124 148.791814 
L 237.960963 149.633756 
L 239.239801 151.797989 
L 240.51864 149.946513 
L 241.797479 143.090514 
L 243.076318 130.142431 
L 244.355157 133.734616 
L 245.633995 141.994901 
L 246.912834 148.483366 
L 248.191673 151.49526 
L 249.470512 154.531199 
L 250.749351 158.7338 
L 252.028189 164.503229 
L 253.307028 166.316891 
L 254.585867 166.623478 
L 255.864706 166.950091 
L 257.143545 166.887715 
L 258.422383 165.019902 
L 259.701222 157.502033 
L 260.980061 142.673179 
L 262.2589 133.259411 
L 263.537739 146.133739 
L 264.816578 155.948075 
L 266.095416 151.327418 
L 267.374255 147.739052 
L 268.653094 147.141236 
L 269.931933 148.556269 
L 271.210772 146.405333 
L 272.48961 137.759825 
L 273.768449 126.376235 
L 275.047288 131.009742 
L 276.326127 139.451502 
L 277.604966 145.296759 
L 278.883804 149.529355 
L 280.162643 153.006128 
L 281.441482 157.999564 
L 282.720321 164.241887 
L 283.99916 165.714664 
L 285.277998 166.072516 
L 286.556837 165.918412 
L 287.835676 166.179197 
L 289.114515 163.573845 
L 290.393354 156.924082 
L 291.672193 142.05679 
L 292.951031 130.209002 
L 294.22987 145.020956 
L 295.508709 149.622446 
L 296.787548 146.757795 
L 298.066387 140.768333 
L 299.345225 140.466676 
L 300.624064 144.483481 
L 301.902903 140.191913 
L 303.181742 132.994616 
L 304.460581 126.495937 
L 305.739419 131.855452 
L 307.018258 139.685894 
L 308.297097 145.838589 
L 309.575936 148.349998 
L 310.854775 149.757118 
L 312.133613 152.695536 
L 313.412452 153.188231 
L 314.691291 159.374578 
L 315.97013 160.92014 
L 317.248969 163.62541 
L 318.527807 165.038128 
L 319.806646 163.924774 
L 321.085485 162.451977 
L 322.364324 158.974347 
L 323.643163 153.75745 
L 324.922002 150.111252 
L 326.20084 146.584189 
L 327.479679 144.309976 
L 328.758518 142.448633 
L 330.037357 142.05 
L 331.316196 142.59732 
L 332.595034 142.111364 
L 333.873873 142.089548 
L 335.152712 143.401776 
L 336.431551 146.585633 
L 337.71039 149.668714 
L 338.989228 154.789714 
L 340.268067 155.388864 
L 341.546906 155.438605 
L 342.825745 157.561137 
L 344.104584 158.760952 
L 345.383422 161.416058 
L 346.662261 162.188979 
L 347.9411 164.584613 
L 349.219939 167.403725 
L 350.498778 167.245544 
L 351.777617 166.211682 
L 353.056455 163.977686 
L 354.335294 159.987664 
L 355.614133 156.710975 
L 356.892972 150.323656 
L 358.171811 146.31006 
L 359.450649 143.312251 
L 360.729488 141.924793 
L 362.008327 141.833637 
L 363.287166 142.511726 
L 364.566005 140.884817 
L 365.844843 142.991527 
L 367.123682 146.821945 
L 368.402521 150.496452 
L 369.68136 154.87631 
L 370.960199 157.266727 
L 372.239037 158.368155 
L 373.517876 161.541374 
L 374.796715 158.915639 
L 376.075554 160.71029 
L 377.354393 163.379795 
L 378.633231 163.599383 
L 379.91207 165.803098 
L 381.190909 163.651839 
" style="fill:none;stroke:#4c72b0;stroke-linecap:round;stroke-width:1.5;"/>
   </g>
   <g id="line2d_28">
    <path clip-path="url(#p77343b144c)" d="M 229.009091 158.450358 
L 230.28793 140.23515 
L 231.566769 124.391153 
L 232.845607 148.480496 
L 234.124446 158.55814 
L 235.403285 155.594127 
L 236.682124 148.69606 
L 237.960963 152.953461 
L 239.239801 154.462413 
L 240.51864 150.797815 
L 241.797479 142.229123 
L 243.076318 118.570909 
L 244.355157 124.337262 
L 245.633995 136.031641 
L 246.912834 141.205191 
L 248.191673 156.725841 
L 249.470512 155.001324 
L 250.749351 156.133039 
L 252.028189 163.893364 
L 253.307028 166.641812 
L 254.585867 167.288506 
L 255.864706 167.396288 
L 257.143545 167.450179 
L 258.422383 165.887336 
L 259.701222 160.821568 
L 260.980061 146.917652 
L 262.2589 128.217424 
L 263.537739 148.642169 
L 264.816578 158.450358 
L 266.095416 156.456385 
L 267.374255 152.468441 
L 268.653094 152.145094 
L 269.931933 153.600155 
L 271.210772 150.474468 
L 272.48961 141.205191 
L 273.768449 119.433167 
L 275.047288 120.187644 
L 276.326127 139.211218 
L 277.604966 144.223095 
L 278.883804 150.690033 
L 280.162643 155.486345 
L 281.441482 159.635963 
L 282.720321 162.492194 
L 283.99916 165.510098 
L 285.277998 167.396288 
L 286.556837 167.126833 
L 287.835676 167.396288 
L 289.114515 165.779554 
L 290.393354 160.606004 
L 291.672193 144.92368 
L 292.951031 125.68454 
L 294.22987 147.29489 
L 295.508709 153.977393 
L 296.787548 151.606182 
L 298.066387 142.768034 
L 299.345225 145.139245 
L 300.624064 146.432632 
L 301.902903 142.660252 
L 303.181742 133.822104 
L 304.460581 119.487059 
L 305.739419 126.977928 
L 307.018258 141.043517 
L 308.297097 147.941584 
L 309.575936 153.600155 
L 310.854775 153.761828 
L 312.133613 158.773705 
L 313.412452 157.695882 
L 314.691291 160.390439 
L 315.97013 163.947255 
L 317.248969 164.971187 
L 318.527807 167.396288 
L 319.806646 167.450179 
L 321.085485 166.372356 
L 322.364324 163.462235 
L 323.643163 156.887515 
L 324.922002 146.702088 
L 326.20084 138.941763 
L 327.479679 133.121519 
L 328.758518 127.947969 
L 330.037357 129.726377 
L 331.316196 136.94779 
L 332.595034 134.57658 
L 333.873873 132.474825 
L 335.152712 135.115491 
L 336.431551 141.312973 
L 337.71039 149.61221 
L 338.989228 154.677978 
L 340.268067 156.402494 
L 341.546906 158.019229 
L 342.825745 158.342576 
L 344.104584 161.144915 
L 345.383422 162.114956 
L 346.662261 164.001146 
L 347.9411 166.803486 
L 349.219939 167.396288 
L 350.498778 167.450179 
L 351.777617 166.749595 
L 353.056455 166.102901 
L 354.335294 164.64784 
L 355.614133 163.354452 
L 356.892972 158.019229 
L 358.171811 149.881666 
L 359.450649 146.863761 
L 360.729488 150.743924 
L 362.008327 151.067271 
L 363.287166 151.4984 
L 364.566005 150.043339 
L 365.844843 159.528181 
L 367.123682 162.276629 
L 368.402521 161.8455 
L 369.68136 161.737718 
L 370.960199 161.899391 
L 372.239037 163.73169 
L 373.517876 163.677799 
L 374.796715 165.240642 
L 376.075554 165.995118 
L 377.354393 167.180724 
L 378.633231 167.450179 
L 379.91207 167.611853 
L 381.190909 166.965159 
" style="fill:none;stroke:#dd8452;stroke-linecap:round;stroke-width:1.5;"/>
   </g>
   <g id="patch_18">
    <path d="M 221.4 170.46 
L 221.4 116.1 
" style="fill:none;stroke:#ffffff;stroke-linecap:square;stroke-linejoin:miter;stroke-width:1.25;"/>
   </g>
   <g id="patch_19">
    <path d="M 388.8 170.46 
L 388.8 116.1 
" style="fill:none;stroke:#ffffff;stroke-linecap:square;stroke-linejoin:miter;stroke-width:1.25;"/>
   </g>
   <g id="patch_20">
    <path d="M 221.4 170.46 
L 388.8 170.46 
" style="fill:none;stroke:#ffffff;stroke-linecap:square;stroke-linejoin:miter;stroke-width:1.25;"/>
   </g>
   <g id="patch_21">
    <path d="M 221.4 116.1 
L 388.8 116.1 
" style="fill:none;stroke:#ffffff;stroke-linecap:square;stroke-linejoin:miter;stroke-width:1.25;"/>
   </g>
  </g>
  <g id="axes_5">
   <g id="patch_22">
    <path d="M 54 252 
L 221.4 252 
L 221.4 197.64 
L 54 197.64 
z
" style="fill:#eaeaf2;"/>
   </g>
   <g id="matplotlib.axis_9">
    <g id="xtick_13">
     <g id="line2d_29">
      <path clip-path="url(#p36f523956f)" d="M 61.609091 252 
L 61.609091 197.64 
" style="fill:none;stroke:#ffffff;stroke-linecap:round;"/>
     </g>
     <g id="text_7">
      <!-- 0 -->
      <g style="fill:#262626;" transform="translate(58.109716 269.858281)scale(0.11 -0.11)">
       <use xlink:href="#DejaVuSans-48"/>
      </g>
     </g>
    </g>
    <g id="xtick_14">
     <g id="line2d_30">
      <path clip-path="url(#p36f523956f)" d="M 125.551031 252 
L 125.551031 197.64 
" style="fill:none;stroke:#ffffff;stroke-linecap:round;"/>
     </g>
     <g id="text_8">
      <!-- 50 -->
      <g style="fill:#262626;" transform="translate(118.552281 269.858281)scale(0.11 -0.11)">
       <use xlink:href="#DejaVuSans-53"/>
       <use x="63.623047" xlink:href="#DejaVuSans-48"/>
      </g>
     </g>
    </g>
    <g id="xtick_15">
     <g id="line2d_31">
      <path clip-path="url(#p36f523956f)" d="M 189.492972 252 
L 189.492972 197.64 
" style="fill:none;stroke:#ffffff;stroke-linecap:round;"/>
     </g>
     <g id="text_9">
      <!-- 100 -->
      <defs>
       <path d="M 12.40625 8.296875 
L 28.515625 8.296875 
L 28.515625 63.921875 
L 10.984375 60.40625 
L 10.984375 69.390625 
L 28.421875 72.90625 
L 38.28125 72.90625 
L 38.28125 8.296875 
L 54.390625 8.296875 
L 54.390625 0 
L 12.40625 0 
z
" id="DejaVuSans-49"/>
      </defs>
      <g style="fill:#262626;" transform="translate(178.994847 269.858281)scale(0.11 -0.11)">
       <use xlink:href="#DejaVuSans-49"/>
       <use x="63.623047" xlink:href="#DejaVuSans-48"/>
       <use x="127.246094" xlink:href="#DejaVuSans-48"/>
      </g>
     </g>
    </g>
    <g id="text_10">
     <!-- Hour interval -->
     <defs>
      <path d="M 9.8125 72.90625 
L 19.671875 72.90625 
L 19.671875 43.015625 
L 55.515625 43.015625 
L 55.515625 72.90625 
L 65.375 72.90625 
L 65.375 0 
L 55.515625 0 
L 55.515625 34.71875 
L 19.671875 34.71875 
L 19.671875 0 
L 9.8125 0 
z
" id="DejaVuSans-72"/>
      <path d="M 30.609375 48.390625 
Q 23.390625 48.390625 19.1875 42.75 
Q 14.984375 37.109375 14.984375 27.296875 
Q 14.984375 17.484375 19.15625 11.84375 
Q 23.34375 6.203125 30.609375 6.203125 
Q 37.796875 6.203125 41.984375 11.859375 
Q 46.1875 17.53125 46.1875 27.296875 
Q 46.1875 37.015625 41.984375 42.703125 
Q 37.796875 48.390625 30.609375 48.390625 
z
M 30.609375 56 
Q 42.328125 56 49.015625 48.375 
Q 55.71875 40.765625 55.71875 27.296875 
Q 55.71875 13.875 49.015625 6.21875 
Q 42.328125 -1.421875 30.609375 -1.421875 
Q 18.84375 -1.421875 12.171875 6.21875 
Q 5.515625 13.875 5.515625 27.296875 
Q 5.515625 40.765625 12.171875 48.375 
Q 18.84375 56 30.609375 56 
z
" id="DejaVuSans-111"/>
      <path d="M 8.5 21.578125 
L 8.5 54.6875 
L 17.484375 54.6875 
L 17.484375 21.921875 
Q 17.484375 14.15625 20.5 10.265625 
Q 23.53125 6.390625 29.59375 6.390625 
Q 36.859375 6.390625 41.078125 11.03125 
Q 45.3125 15.671875 45.3125 23.6875 
L 45.3125 54.6875 
L 54.296875 54.6875 
L 54.296875 0 
L 45.3125 0 
L 45.3125 8.40625 
Q 42.046875 3.421875 37.71875 1 
Q 33.40625 -1.421875 27.6875 -1.421875 
Q 18.265625 -1.421875 13.375 4.4375 
Q 8.5 10.296875 8.5 21.578125 
z
M 31.109375 56 
z
" id="DejaVuSans-117"/>
      <path d="M 41.109375 46.296875 
Q 39.59375 47.171875 37.8125 47.578125 
Q 36.03125 48 33.890625 48 
Q 26.265625 48 22.1875 43.046875 
Q 18.109375 38.09375 18.109375 28.8125 
L 18.109375 0 
L 9.078125 0 
L 9.078125 54.6875 
L 18.109375 54.6875 
L 18.109375 46.1875 
Q 20.953125 51.171875 25.484375 53.578125 
Q 30.03125 56 36.53125 56 
Q 37.453125 56 38.578125 55.875 
Q 39.703125 55.765625 41.0625 55.515625 
z
" id="DejaVuSans-114"/>
      <path d="M 54.890625 33.015625 
L 54.890625 0 
L 45.90625 0 
L 45.90625 32.71875 
Q 45.90625 40.484375 42.875 44.328125 
Q 39.84375 48.1875 33.796875 48.1875 
Q 26.515625 48.1875 22.3125 43.546875 
Q 18.109375 38.921875 18.109375 30.90625 
L 18.109375 0 
L 9.078125 0 
L 9.078125 54.6875 
L 18.109375 54.6875 
L 18.109375 46.1875 
Q 21.34375 51.125 25.703125 53.5625 
Q 30.078125 56 35.796875 56 
Q 45.21875 56 50.046875 50.171875 
Q 54.890625 44.34375 54.890625 33.015625 
z
" id="DejaVuSans-110"/>
      <path d="M 18.3125 70.21875 
L 18.3125 54.6875 
L 36.8125 54.6875 
L 36.8125 47.703125 
L 18.3125 47.703125 
L 18.3125 18.015625 
Q 18.3125 11.328125 20.140625 9.421875 
Q 21.96875 7.515625 27.59375 7.515625 
L 36.8125 7.515625 
L 36.8125 0 
L 27.59375 0 
Q 17.1875 0 13.234375 3.875 
Q 9.28125 7.765625 9.28125 18.015625 
L 9.28125 47.703125 
L 2.6875 47.703125 
L 2.6875 54.6875 
L 9.28125 54.6875 
L 9.28125 70.21875 
z
" id="DejaVuSans-116"/>
      <path d="M 2.984375 54.6875 
L 12.5 54.6875 
L 29.59375 8.796875 
L 46.6875 54.6875 
L 56.203125 54.6875 
L 35.6875 0 
L 23.484375 0 
z
" id="DejaVuSans-118"/>
      <path d="M 34.28125 27.484375 
Q 23.390625 27.484375 19.1875 25 
Q 14.984375 22.515625 14.984375 16.5 
Q 14.984375 11.71875 18.140625 8.90625 
Q 21.296875 6.109375 26.703125 6.109375 
Q 34.1875 6.109375 38.703125 11.40625 
Q 43.21875 16.703125 43.21875 25.484375 
L 43.21875 27.484375 
z
M 52.203125 31.203125 
L 52.203125 0 
L 43.21875 0 
L 43.21875 8.296875 
Q 40.140625 3.328125 35.546875 0.953125 
Q 30.953125 -1.421875 24.3125 -1.421875 
Q 15.921875 -1.421875 10.953125 3.296875 
Q 6 8.015625 6 15.921875 
Q 6 25.140625 12.171875 29.828125 
Q 18.359375 34.515625 30.609375 34.515625 
L 43.21875 34.515625 
L 43.21875 35.40625 
Q 43.21875 41.609375 39.140625 45 
Q 35.0625 48.390625 27.6875 48.390625 
Q 23 48.390625 18.546875 47.265625 
Q 14.109375 46.140625 10.015625 43.890625 
L 10.015625 52.203125 
Q 14.9375 54.109375 19.578125 55.046875 
Q 24.21875 56 28.609375 56 
Q 40.484375 56 46.34375 49.84375 
Q 52.203125 43.703125 52.203125 31.203125 
z
" id="DejaVuSans-97"/>
      <path d="M 9.421875 75.984375 
L 18.40625 75.984375 
L 18.40625 0 
L 9.421875 0 
z
" id="DejaVuSans-108"/>
     </defs>
     <g style="fill:#262626;" transform="translate(98.465625 285.264063)scale(0.12 -0.12)">
      <use xlink:href="#DejaVuSans-72"/>
      <use x="75.195312" xlink:href="#DejaVuSans-111"/>
      <use x="136.376953" xlink:href="#DejaVuSans-117"/>
      <use x="199.755859" xlink:href="#DejaVuSans-114"/>
      <use x="240.869141" xlink:href="#DejaVuSans-32"/>
      <use x="272.65625" xlink:href="#DejaVuSans-105"/>
      <use x="300.439453" xlink:href="#DejaVuSans-110"/>
      <use x="363.818359" xlink:href="#DejaVuSans-116"/>
      <use x="403.027344" xlink:href="#DejaVuSans-101"/>
      <use x="464.550781" xlink:href="#DejaVuSans-114"/>
      <use x="505.664062" xlink:href="#DejaVuSans-118"/>
      <use x="564.84375" xlink:href="#DejaVuSans-97"/>
      <use x="626.123047" xlink:href="#DejaVuSans-108"/>
     </g>
    </g>
   </g>
   <g id="matplotlib.axis_10">
    <g id="ytick_9">
     <g id="line2d_32">
      <path clip-path="url(#p36f523956f)" d="M 54 249.529091 
L 221.4 249.529091 
" style="fill:none;stroke:#ffffff;stroke-linecap:round;"/>
     </g>
     <g id="text_11">
      <!-- 0 -->
      <g style="fill:#262626;" transform="translate(37.50125 253.708232)scale(0.11 -0.11)">
       <use xlink:href="#DejaVuSans-48"/>
      </g>
     </g>
    </g>
    <g id="ytick_10">
     <g id="line2d_33">
      <path clip-path="url(#p36f523956f)" d="M 54 222.583517 
L 221.4 222.583517 
" style="fill:none;stroke:#ffffff;stroke-linecap:round;"/>
     </g>
     <g id="text_12">
      <!-- 500 -->
      <g style="fill:#262626;" transform="translate(23.50375 226.762658)scale(0.11 -0.11)">
       <use xlink:href="#DejaVuSans-53"/>
       <use x="63.623047" xlink:href="#DejaVuSans-48"/>
       <use x="127.246094" xlink:href="#DejaVuSans-48"/>
      </g>
     </g>
    </g>
    <g id="text_13">
     <!-- Used bikes -->
     <g style="fill:#262626;" transform="translate(17.008125 257.509687)rotate(-90)scale(0.12 -0.12)">
      <use xlink:href="#DejaVuSans-85"/>
      <use x="73.193359" xlink:href="#DejaVuSans-115"/>
      <use x="125.292969" xlink:href="#DejaVuSans-101"/>
      <use x="186.816406" xlink:href="#DejaVuSans-100"/>
      <use x="250.292969" xlink:href="#DejaVuSans-32"/>
      <use x="282.080078" xlink:href="#DejaVuSans-98"/>
      <use x="345.556641" xlink:href="#DejaVuSans-105"/>
      <use x="373.339844" xlink:href="#DejaVuSans-107"/>
      <use x="431.203125" xlink:href="#DejaVuSans-101"/>
      <use x="492.726562" xlink:href="#DejaVuSans-115"/>
     </g>
    </g>
   </g>
   <g id="line2d_34">
    <path clip-path="url(#p36f523956f)" d="M 61.609091 226.350765 
L 62.88793 227.252197 
L 64.166769 224.730215 
L 65.445607 216.334565 
L 66.724446 208.515372 
L 68.003285 212.733236 
L 69.282124 218.646875 
L 70.560963 225.049176 
L 71.839801 228.347538 
L 73.11864 232.448248 
L 74.397479 237.029095 
L 75.676318 244.319747 
L 76.955157 247.298492 
L 78.233995 247.756027 
L 79.512834 247.977386 
L 80.791673 247.93048 
L 82.070512 244.10882 
L 83.349351 236.045678 
L 84.628189 223.876941 
L 85.907028 215.466866 
L 87.185867 226.50998 
L 88.464706 232.660813 
L 89.743545 229.691335 
L 91.022383 225.131853 
L 92.301222 224.381738 
L 93.580061 225.959493 
L 94.8589 224.186001 
L 96.137739 217.945247 
L 97.416578 211.384237 
L 98.695416 215.563367 
L 99.974255 219.752706 
L 101.253094 226.516009 
L 102.531933 230.253229 
L 103.810772 232.143862 
L 105.08961 232.53709 
L 106.368449 234.032699 
L 107.647288 236.870946 
L 108.926127 238.134981 
L 110.204966 240.09476 
L 111.483804 242.002178 
L 112.762643 240.742221 
L 114.041482 239.448974 
L 115.320321 237.277267 
L 116.59916 235.162906 
L 117.877998 233.203895 
L 119.156837 229.356468 
L 120.435676 223.7094 
L 121.714515 221.06723 
L 122.993354 219.741835 
L 124.272193 220.298535 
L 125.551031 219.967922 
L 126.82987 219.373017 
L 128.108709 220.19093 
L 129.387548 222.812185 
L 130.666387 226.800608 
L 131.945225 231.799925 
L 133.224064 233.693481 
L 134.502903 236.196686 
L 135.781742 237.399472 
L 137.060581 240.860614 
L 138.339419 242.644791 
L 139.618258 242.50458 
L 140.897097 246.204174 
L 142.175936 249.529091 
L 143.454775 249.529091 
L 144.733613 249.529091 
L 146.012452 248.987885 
L 147.291291 244.932822 
L 148.57013 239.913272 
L 149.848969 233.989935 
L 151.127807 230.479069 
L 152.406646 227.060754 
L 153.685485 225.686477 
L 154.964324 225.506982 
L 156.243163 225.538927 
L 157.522002 223.877357 
L 158.80084 224.982917 
L 160.079679 227.011556 
L 161.358518 230.125428 
L 162.637357 235.008783 
L 163.916196 236.737038 
L 165.195034 239.027796 
L 166.473873 242.23735 
L 167.752712 245.2477 
L 169.031551 247.617451 
L 170.31039 248.56819 
L 171.589228 249.224589 
L 172.868067 249.529091 
L 174.146906 246.324773 
L 175.425745 238.854243 
L 176.704584 228.357072 
L 177.983422 219.760965 
L 179.262261 231.000445 
L 180.5411 235.294279 
L 181.819939 231.198159 
L 183.098778 226.238598 
L 184.377617 225.908911 
L 185.656455 227.61027 
L 186.935294 225.707831 
L 188.214133 218.700214 
L 189.492972 208.062143 
L 190.771811 211.982878 
L 192.050649 217.853175 
L 193.329488 225.304894 
L 194.608327 230.144654 
L 195.887166 235.648326 
L 197.166005 241.777841 
L 198.444843 246.353035 
L 199.723682 248.930427 
L 201.002521 249.354792 
L 202.28136 249.529091 
L 203.560199 249.529091 
L 204.839037 246.429093 
L 206.117876 240.048932 
L 207.396715 230.186971 
L 208.675554 222.161952 
L 209.954393 233.03256 
L 211.233231 238.085636 
L 212.51207 235.466962 
L 213.790909 230.533858 
" style="fill:none;stroke:#4c72b0;stroke-linecap:round;stroke-width:1.5;"/>
   </g>
   <g id="line2d_35">
    <path clip-path="url(#p36f523956f)" d="M 61.609091 234.277896 
L 62.88793 234.762917 
L 64.166769 230.559407 
L 65.445607 223.068538 
L 66.724446 201.889317 
L 68.003285 203.613834 
L 69.282124 213.206458 
L 70.560963 224.57749 
L 71.839801 232.445597 
L 73.11864 236.002413 
L 74.397479 240.367596 
L 75.676318 244.840561 
L 76.955157 247.319554 
L 78.233995 247.912356 
L 79.512834 248.774615 
L 80.791673 248.882397 
L 82.070512 247.319554 
L 83.349351 241.337637 
L 84.628189 225.06251 
L 85.907028 208.248472 
L 87.185867 230.828863 
L 88.464706 236.271869 
L 89.743545 234.43957 
L 91.022383 227.487612 
L 92.301222 227.541503 
L 93.580061 229.535475 
L 94.8589 229.75104 
L 96.137739 219.188375 
L 97.416578 201.350405 
L 98.695416 205.985044 
L 99.974255 218.326117 
L 101.253094 227.757068 
L 102.531933 232.715053 
L 103.810772 237.188018 
L 105.08961 239.020317 
L 106.368449 238.373623 
L 107.647288 243.654956 
L 108.926127 244.517214 
L 110.204966 247.535118 
L 111.483804 249.205744 
L 112.762643 248.666833 
L 114.041482 247.750683 
L 115.320321 245.595037 
L 116.59916 238.104168 
L 117.877998 231.098319 
L 119.156837 225.709204 
L 120.435676 215.739342 
L 121.714515 211.481941 
L 122.993354 211.589723 
L 124.272193 210.996921 
L 125.551031 214.284281 
L 126.82987 207.332323 
L 128.108709 210.242445 
L 129.387548 216.439927 
L 130.666387 223.769123 
L 131.945225 231.745012 
L 133.224064 233.577311 
L 134.502903 234.493461 
L 135.781742 237.188018 
L 137.060581 241.391528 
L 138.339419 243.223827 
L 139.618258 244.732779 
L 140.897097 246.942316 
L 142.175936 249.097962 
L 143.454775 248.828506 
L 144.733613 247.642901 
L 146.012452 245.702819 
L 147.291291 242.631024 
L 148.57013 233.577311 
L 149.848969 223.122429 
L 151.127807 219.40394 
L 152.406646 214.176498 
L 153.685485 212.128635 
L 154.964324 215.308213 
L 156.243163 219.511722 
L 157.522002 217.409967 
L 158.80084 218.811137 
L 160.079679 223.607449 
L 161.358518 227.810959 
L 162.637357 232.068359 
L 163.916196 239.235882 
L 165.195034 242.684915 
L 166.473873 244.463323 
L 167.752712 247.103989 
L 169.031551 248.397377 
L 170.31039 248.828506 
L 171.589228 249.151853 
L 172.868067 248.936288 
L 174.146906 247.103989 
L 175.425745 240.690943 
L 176.704584 223.014647 
L 177.983422 212.721437 
L 179.262261 233.415638 
L 180.5411 238.643079 
L 181.819939 235.948522 
L 183.098778 233.631203 
L 184.377617 231.044427 
L 185.656455 231.63723 
L 186.935294 231.313883 
L 188.214133 225.116401 
L 189.492972 204.152745 
L 190.771811 207.817343 
L 192.050649 223.337993 
L 193.329488 231.206101 
L 194.608327 236.972454 
L 195.887166 242.577133 
L 197.166005 245.756711 
L 198.444843 248.828506 
L 199.723682 249.259635 
L 201.002521 249.313526 
L 202.28136 249.205744 
L 203.560199 249.151853 
L 204.839037 246.942316 
L 206.117876 240.529269 
L 207.396715 230.343843 
L 208.675554 213.31424 
L 209.954393 233.738985 
L 211.233231 240.906507 
L 212.51207 241.391528 
L 213.790909 244.78667 
" style="fill:none;stroke:#dd8452;stroke-linecap:round;stroke-width:1.5;"/>
   </g>
   <g id="patch_23">
    <path d="M 54 252 
L 54 197.64 
" style="fill:none;stroke:#ffffff;stroke-linecap:square;stroke-linejoin:miter;stroke-width:1.25;"/>
   </g>
   <g id="patch_24">
    <path d="M 221.4 252 
L 221.4 197.64 
" style="fill:none;stroke:#ffffff;stroke-linecap:square;stroke-linejoin:miter;stroke-width:1.25;"/>
   </g>
   <g id="patch_25">
    <path d="M 54 252 
L 221.4 252 
" style="fill:none;stroke:#ffffff;stroke-linecap:square;stroke-linejoin:miter;stroke-width:1.25;"/>
   </g>
   <g id="patch_26">
    <path d="M 54 197.64 
L 221.4 197.64 
" style="fill:none;stroke:#ffffff;stroke-linecap:square;stroke-linejoin:miter;stroke-width:1.25;"/>
   </g>
  </g>
  <g id="axes_6">
   <g id="patch_27">
    <path d="M 221.4 252 
L 388.8 252 
L 388.8 197.64 
L 221.4 197.64 
z
" style="fill:#eaeaf2;"/>
   </g>
   <g id="matplotlib.axis_11">
    <g id="xtick_16">
     <g id="line2d_36">
      <path clip-path="url(#pc1933c8de8)" d="M 229.009091 252 
L 229.009091 197.64 
" style="fill:none;stroke:#ffffff;stroke-linecap:round;"/>
     </g>
     <g id="text_14">
      <!-- 0 -->
      <g style="fill:#262626;" transform="translate(225.509716 269.858281)scale(0.11 -0.11)">
       <use xlink:href="#DejaVuSans-48"/>
      </g>
     </g>
    </g>
    <g id="xtick_17">
     <g id="line2d_37">
      <path clip-path="url(#pc1933c8de8)" d="M 292.951031 252 
L 292.951031 197.64 
" style="fill:none;stroke:#ffffff;stroke-linecap:round;"/>
     </g>
     <g id="text_15">
      <!-- 50 -->
      <g style="fill:#262626;" transform="translate(285.952281 269.858281)scale(0.11 -0.11)">
       <use xlink:href="#DejaVuSans-53"/>
       <use x="63.623047" xlink:href="#DejaVuSans-48"/>
      </g>
     </g>
    </g>
    <g id="xtick_18">
     <g id="line2d_38">
      <path clip-path="url(#pc1933c8de8)" d="M 356.892972 252 
L 356.892972 197.64 
" style="fill:none;stroke:#ffffff;stroke-linecap:round;"/>
     </g>
     <g id="text_16">
      <!-- 100 -->
      <g style="fill:#262626;" transform="translate(346.394847 269.858281)scale(0.11 -0.11)">
       <use xlink:href="#DejaVuSans-49"/>
       <use x="63.623047" xlink:href="#DejaVuSans-48"/>
       <use x="127.246094" xlink:href="#DejaVuSans-48"/>
      </g>
     </g>
    </g>
    <g id="text_17">
     <!-- Hour interval -->
     <g style="fill:#262626;" transform="translate(265.865625 285.264063)scale(0.12 -0.12)">
      <use xlink:href="#DejaVuSans-72"/>
      <use x="75.195312" xlink:href="#DejaVuSans-111"/>
      <use x="136.376953" xlink:href="#DejaVuSans-117"/>
      <use x="199.755859" xlink:href="#DejaVuSans-114"/>
      <use x="240.869141" xlink:href="#DejaVuSans-32"/>
      <use x="272.65625" xlink:href="#DejaVuSans-105"/>
      <use x="300.439453" xlink:href="#DejaVuSans-110"/>
      <use x="363.818359" xlink:href="#DejaVuSans-116"/>
      <use x="403.027344" xlink:href="#DejaVuSans-101"/>
      <use x="464.550781" xlink:href="#DejaVuSans-114"/>
      <use x="505.664062" xlink:href="#DejaVuSans-118"/>
      <use x="564.84375" xlink:href="#DejaVuSans-97"/>
      <use x="626.123047" xlink:href="#DejaVuSans-108"/>
     </g>
    </g>
   </g>
   <g id="matplotlib.axis_12">
    <g id="ytick_11">
     <g id="line2d_39">
      <path clip-path="url(#pc1933c8de8)" d="M 221.4 249.529091 
L 388.8 249.529091 
" style="fill:none;stroke:#ffffff;stroke-linecap:round;"/>
     </g>
    </g>
    <g id="ytick_12">
     <g id="line2d_40">
      <path clip-path="url(#pc1933c8de8)" d="M 221.4 222.583517 
L 388.8 222.583517 
" style="fill:none;stroke:#ffffff;stroke-linecap:round;"/>
     </g>
    </g>
   </g>
   <g id="line2d_41">
    <path clip-path="url(#pc1933c8de8)" d="M 229.009091 245.282595 
L 230.28793 246.09481 
L 231.566769 246.821609 
L 232.845607 248.022854 
L 234.124446 248.833481 
L 235.403285 248.21666 
L 236.682124 247.921372 
L 237.960963 245.550587 
L 239.239801 239.618285 
L 240.51864 235.344845 
L 241.797479 231.316406 
L 243.076318 227.380556 
L 244.355157 224.456883 
L 245.633995 224.478824 
L 246.912834 225.261194 
L 248.191673 225.566993 
L 249.470512 227.008055 
L 250.749351 230.255164 
L 252.028189 233.150545 
L 253.307028 234.794446 
L 254.585867 237.361988 
L 255.864706 239.503671 
L 257.143545 240.707401 
L 258.422383 242.519694 
L 259.701222 242.725192 
L 260.980061 243.297097 
L 262.2589 244.514573 
L 263.537739 246.349566 
L 264.816578 249.341948 
L 266.095416 249.529091 
L 267.374255 248.837072 
L 268.653094 247.528333 
L 269.931933 245.152696 
L 271.210772 240.12381 
L 272.48961 233.989195 
L 273.768449 231.430073 
L 275.047288 229.07934 
L 276.326127 228.446383 
L 277.604966 229.128524 
L 278.883804 229.858363 
L 280.162643 230.70146 
L 281.441482 234.132312 
L 282.720321 237.679706 
L 283.99916 238.875991 
L 285.277998 241.482161 
L 286.556837 242.945258 
L 287.835676 244.292655 
L 289.114515 245.291593 
L 290.393354 246.50827 
L 291.672193 248.00399 
L 292.951031 249.070388 
L 294.22987 249.358326 
L 295.508709 249.204846 
L 296.787548 246.772773 
L 298.066387 239.5924 
L 299.345225 226.737617 
L 300.624064 218.739787 
L 301.902903 229.850172 
L 303.181742 237.694958 
L 304.460581 234.042075 
L 305.739419 229.642523 
L 307.018258 229.678532 
L 308.297097 231.450889 
L 309.575936 230.453691 
L 310.854775 224.265451 
L 312.133613 214.732402 
L 313.412452 218.084146 
L 314.691291 224.389766 
L 315.97013 229.533658 
L 317.248969 233.878739 
L 318.527807 238.61221 
L 319.806646 243.207514 
L 321.085485 246.994949 
L 322.364324 248.223565 
L 323.643163 248.941081 
L 324.922002 248.651701 
L 326.20084 248.685338 
L 327.479679 246.39177 
L 328.758518 239.192996 
L 330.037357 225.539746 
L 331.316196 218.67707 
L 332.595034 230.442191 
L 333.873873 238.834935 
L 335.152712 237.241143 
L 336.431551 233.407824 
L 337.71039 233.03629 
L 338.989228 234.167438 
L 340.268067 232.82718 
L 341.546906 225.912059 
L 342.825745 216.455656 
L 344.104584 217.950497 
L 345.383422 223.715373 
L 346.662261 228.023456 
L 347.9411 231.329081 
L 349.219939 235.432418 
L 350.498778 242.160465 
L 351.777617 246.965079 
L 353.056455 248.176524 
L 354.335294 248.807705 
L 355.614133 248.383796 
L 356.892972 248.553316 
L 358.171811 245.67249 
L 359.450649 237.942851 
L 360.729488 224.766959 
L 362.008327 216.843663 
L 363.287166 228.511359 
L 364.566005 236.90765 
L 365.844843 234.632897 
L 367.123682 230.935496 
L 368.402521 231.429762 
L 369.68136 233.03565 
L 370.960199 232.280682 
L 372.239037 225.206811 
L 373.517876 214.037044 
L 374.796715 217.323802 
L 376.075554 223.57318 
L 377.354393 229.374754 
L 378.633231 233.664143 
L 379.91207 237.531176 
L 381.190909 242.800718 
" style="fill:none;stroke:#4c72b0;stroke-linecap:round;stroke-width:1.5;"/>
   </g>
   <g id="line2d_42">
    <path clip-path="url(#pc1933c8de8)" d="M 229.009091 247.265663 
L 230.28793 248.451268 
L 231.566769 247.804574 
L 232.845607 248.936288 
L 234.124446 249.367417 
L 235.403285 249.367417 
L 236.682124 248.990179 
L 237.960963 248.181812 
L 239.239801 246.18784 
L 240.51864 242.954371 
L 241.797479 241.876548 
L 243.076318 239.505338 
L 244.355157 238.804753 
L 245.633995 237.403583 
L 246.912834 238.373623 
L 248.191673 238.858644 
L 249.470512 240.367596 
L 250.749351 242.738806 
L 252.028189 241.714875 
L 253.307028 245.056126 
L 254.585867 246.403404 
L 255.864706 245.487255 
L 257.143545 245.433364 
L 258.422383 246.457296 
L 259.701222 247.696792 
L 260.980061 247.58901 
L 262.2589 248.020139 
L 263.537739 249.097962 
L 264.816578 249.421309 
L 266.095416 249.367417 
L 267.374255 248.936288 
L 268.653094 248.397377 
L 269.931933 247.696792 
L 271.210772 244.355541 
L 272.48961 242.038221 
L 273.768449 238.535297 
L 275.047288 238.643079 
L 276.326127 239.020317 
L 277.604966 238.589188 
L 278.883804 236.32576 
L 280.162643 237.241909 
L 281.441482 239.774793 
L 282.720321 241.930439 
L 283.99916 242.684915 
L 285.277998 243.116044 
L 286.556837 246.080057 
L 287.835676 246.18784 
L 289.114515 247.319554 
L 290.393354 248.289595 
L 291.672193 248.990179 
L 292.951031 249.259635 
L 294.22987 249.259635 
L 295.508709 248.990179 
L 296.787548 247.319554 
L 298.066387 242.846589 
L 299.345225 229.858822 
L 300.624064 215.146539 
L 301.902903 234.116223 
L 303.181742 241.607092 
L 304.460581 242.523242 
L 305.739419 238.21195 
L 307.018258 237.834712 
L 308.297097 237.241909 
L 309.575936 237.134127 
L 310.854775 230.882754 
L 312.133613 219.727287 
L 313.412452 221.451803 
L 314.691291 229.535475 
L 315.97013 234.601243 
L 317.248969 239.774793 
L 318.527807 243.924412 
L 319.806646 246.026166 
L 321.085485 248.127921 
L 322.364324 249.205744 
L 323.643163 249.259635 
L 324.922002 249.313526 
L 326.20084 249.259635 
L 327.479679 247.858465 
L 328.758518 244.139976 
L 330.037357 233.738985 
L 331.316196 222.583517 
L 332.595034 235.086264 
L 333.873873 246.457296 
L 335.152712 246.026166 
L 336.431551 245.433364 
L 337.71039 245.379473 
L 338.989228 244.463323 
L 340.268067 241.175963 
L 341.546906 235.679066 
L 342.825745 221.128456 
L 344.104584 223.553558 
L 345.383422 230.667189 
L 346.662261 237.026345 
L 347.9411 239.559229 
L 349.219939 244.30165 
L 350.498778 245.918384 
L 351.777617 248.289595 
L 353.056455 248.882397 
L 354.335294 249.4752 
L 355.614133 249.367417 
L 356.892972 249.313526 
L 358.171811 247.427336 
L 359.450649 242.199895 
L 360.729488 227.487612 
L 362.008327 212.236417 
L 363.287166 232.176142 
L 364.566005 240.852616 
L 365.844843 241.660983 
L 367.123682 238.319732 
L 368.402521 237.996385 
L 369.68136 240.044249 
L 370.960199 239.882576 
L 372.239037 232.014468 
L 373.517876 219.188375 
L 374.796715 220.320089 
L 376.075554 228.673217 
L 377.354393 235.355719 
L 378.633231 237.511365 
L 379.91207 241.229854 
L 381.190909 245.325581 
" style="fill:none;stroke:#dd8452;stroke-linecap:round;stroke-width:1.5;"/>
   </g>
   <g id="patch_28">
    <path d="M 221.4 252 
L 221.4 197.64 
" style="fill:none;stroke:#ffffff;stroke-linecap:square;stroke-linejoin:miter;stroke-width:1.25;"/>
   </g>
   <g id="patch_29">
    <path d="M 388.8 252 
L 388.8 197.64 
" style="fill:none;stroke:#ffffff;stroke-linecap:square;stroke-linejoin:miter;stroke-width:1.25;"/>
   </g>
   <g id="patch_30">
    <path d="M 221.4 252 
L 388.8 252 
" style="fill:none;stroke:#ffffff;stroke-linecap:square;stroke-linejoin:miter;stroke-width:1.25;"/>
   </g>
   <g id="patch_31">
    <path d="M 221.4 197.64 
L 388.8 197.64 
" style="fill:none;stroke:#ffffff;stroke-linecap:square;stroke-linejoin:miter;stroke-width:1.25;"/>
   </g>
  </g>
  <g id="legend_1">
   <g id="patch_32">
    <path d="M 334.024375 41.091875 
L 424.3 41.091875 
Q 426.5 41.091875 426.5 38.891875 
L 426.5 7.7 
Q 426.5 5.5 424.3 5.5 
L 334.024375 5.5 
Q 331.824375 5.5 331.824375 7.7 
L 331.824375 38.891875 
Q 331.824375 41.091875 334.024375 41.091875 
z
" style="fill:#eaeaf2;opacity:0.8;stroke:#cccccc;stroke-linejoin:miter;"/>
   </g>
   <g id="line2d_43">
    <path d="M 336.224375 14.408281 
L 358.224375 14.408281 
" style="fill:none;stroke:#4c72b0;stroke-linecap:round;stroke-width:1.5;"/>
   </g>
   <g id="line2d_44"/>
   <g id="text_18">
    <!-- Prediction -->
    <defs>
     <path d="M 19.671875 64.796875 
L 19.671875 37.40625 
L 32.078125 37.40625 
Q 38.96875 37.40625 42.71875 40.96875 
Q 46.484375 44.53125 46.484375 51.125 
Q 46.484375 57.671875 42.71875 61.234375 
Q 38.96875 64.796875 32.078125 64.796875 
z
M 9.8125 72.90625 
L 32.078125 72.90625 
Q 44.34375 72.90625 50.609375 67.359375 
Q 56.890625 61.8125 56.890625 51.125 
Q 56.890625 40.328125 50.609375 34.8125 
Q 44.34375 29.296875 32.078125 29.296875 
L 19.671875 29.296875 
L 19.671875 0 
L 9.8125 0 
z
" id="DejaVuSans-80"/>
     <path d="M 48.78125 52.59375 
L 48.78125 44.1875 
Q 44.96875 46.296875 41.140625 47.34375 
Q 37.3125 48.390625 33.40625 48.390625 
Q 24.65625 48.390625 19.8125 42.84375 
Q 14.984375 37.3125 14.984375 27.296875 
Q 14.984375 17.28125 19.8125 11.734375 
Q 24.65625 6.203125 33.40625 6.203125 
Q 37.3125 6.203125 41.140625 7.25 
Q 44.96875 8.296875 48.78125 10.40625 
L 48.78125 2.09375 
Q 45.015625 0.34375 40.984375 -0.53125 
Q 36.96875 -1.421875 32.421875 -1.421875 
Q 20.0625 -1.421875 12.78125 6.34375 
Q 5.515625 14.109375 5.515625 27.296875 
Q 5.515625 40.671875 12.859375 48.328125 
Q 20.21875 56 33.015625 56 
Q 37.15625 56 41.109375 55.140625 
Q 45.0625 54.296875 48.78125 52.59375 
z
" id="DejaVuSans-99"/>
    </defs>
    <g style="fill:#262626;" transform="translate(367.024375 18.258281)scale(0.11 -0.11)">
     <use xlink:href="#DejaVuSans-80"/>
     <use x="60.287109" xlink:href="#DejaVuSans-114"/>
     <use x="101.369141" xlink:href="#DejaVuSans-101"/>
     <use x="162.892578" xlink:href="#DejaVuSans-100"/>
     <use x="226.369141" xlink:href="#DejaVuSans-105"/>
     <use x="254.152344" xlink:href="#DejaVuSans-99"/>
     <use x="309.132812" xlink:href="#DejaVuSans-116"/>
     <use x="348.341797" xlink:href="#DejaVuSans-105"/>
     <use x="376.125" xlink:href="#DejaVuSans-111"/>
     <use x="437.306641" xlink:href="#DejaVuSans-110"/>
    </g>
   </g>
   <g id="line2d_45">
    <path d="M 336.224375 30.554219 
L 358.224375 30.554219 
" style="fill:none;stroke:#dd8452;stroke-linecap:round;stroke-width:1.5;"/>
   </g>
   <g id="line2d_46"/>
   <g id="text_19">
    <!-- Truth -->
    <defs>
     <path d="M -0.296875 72.90625 
L 61.375 72.90625 
L 61.375 64.59375 
L 35.5 64.59375 
L 35.5 0 
L 25.59375 0 
L 25.59375 64.59375 
L -0.296875 64.59375 
z
" id="DejaVuSans-84"/>
     <path d="M 54.890625 33.015625 
L 54.890625 0 
L 45.90625 0 
L 45.90625 32.71875 
Q 45.90625 40.484375 42.875 44.328125 
Q 39.84375 48.1875 33.796875 48.1875 
Q 26.515625 48.1875 22.3125 43.546875 
Q 18.109375 38.921875 18.109375 30.90625 
L 18.109375 0 
L 9.078125 0 
L 9.078125 75.984375 
L 18.109375 75.984375 
L 18.109375 46.1875 
Q 21.34375 51.125 25.703125 53.5625 
Q 30.078125 56 35.796875 56 
Q 45.21875 56 50.046875 50.171875 
Q 54.890625 44.34375 54.890625 33.015625 
z
" id="DejaVuSans-104"/>
    </defs>
    <g style="fill:#262626;" transform="translate(367.024375 34.404219)scale(0.11 -0.11)">
     <use xlink:href="#DejaVuSans-84"/>
     <use x="60.865234" xlink:href="#DejaVuSans-114"/>
     <use x="101.978516" xlink:href="#DejaVuSans-117"/>
     <use x="165.357422" xlink:href="#DejaVuSans-116"/>
     <use x="204.566406" xlink:href="#DejaVuSans-104"/>
    </g>
   </g>
  </g>
 </g>
 <defs>
  <clipPath id="p623b639e35">
   <rect height="54.36" width="167.4" x="54" y="34.56"/>
  </clipPath>
  <clipPath id="pc9be310bfa">
   <rect height="54.36" width="167.4" x="221.4" y="34.56"/>
  </clipPath>
  <clipPath id="pce51287c97">
   <rect height="54.36" width="167.4" x="54" y="116.1"/>
  </clipPath>
  <clipPath id="p77343b144c">
   <rect height="54.36" width="167.4" x="221.4" y="116.1"/>
  </clipPath>
  <clipPath id="p36f523956f">
   <rect height="54.36" width="167.4" x="54" y="197.64"/>
  </clipPath>
  <clipPath id="pc1933c8de8">
   <rect height="54.36" width="167.4" x="221.4" y="197.64"/>
  </clipPath>
 </defs>
</svg>
